<svg width="33" height="33" viewBox="0 0 33 33" fill="none" xmlns="http://www.w3.org/2000/svg">
<path fill-rule="evenodd" clip-rule="evenodd" d="M27.5 14.4375V21.4305L29.4445 23.375C29.9603 23.8907 30.25 24.5902 30.25 25.3195V25.4375C30.25 26.5766 29.3266 27.5 28.1875 27.5H6.1875C5.04841 27.5 4.125 26.5766 4.125 25.4375V25.3195C4.125 24.5902 4.41473 23.8907 4.93046 23.375L6.875 21.4305V14.4375C6.875 10.0088 9.69036 6.15292 13.7512 4.72012C13.8001 2.86231 15.3177 1.375 17.1875 1.375C19.0573 1.375 20.5749 2.86231 20.6238 4.72012C24.6846 6.15292 27.5 10.0088 27.5 14.4375ZM14.4375 28.875C14.4375 30.3875 15.675 31.625 17.1875 31.625C18.7 31.625 19.9375 30.3875 19.9375 28.875H14.4375ZM24.75 14.4375V22.5695L26.9304 24.75H7.4445L9.62496 22.5695V14.4375C9.62496 10.9165 12.0536 7.88827 15.442 7.08546L16.5 6.83478V4.8125C16.5 4.43064 16.8056 4.125 17.1875 4.125C17.5693 4.125 17.875 4.43064 17.875 4.8125V6.83478L18.933 7.08546C22.3213 7.88827 24.75 10.9165 24.75 14.4375Z" fill="#C2D1D9"/>
<mask id="mask0_12_186" style="mask-type:alpha" maskUnits="userSpaceOnUse" x="4" y="1" width="27" height="31">
<path fill-rule="evenodd" clip-rule="evenodd" d="M27.5 14.4375V21.4305L29.4445 23.375C29.9603 23.8907 30.25 24.5902 30.25 25.3195V25.4375C30.25 26.5766 29.3266 27.5 28.1875 27.5H6.1875C5.04841 27.5 4.125 26.5766 4.125 25.4375V25.3195C4.125 24.5902 4.41473 23.8907 4.93046 23.375L6.875 21.4305V14.4375C6.875 10.0088 9.69036 6.15292 13.7512 4.72012C13.8001 2.86231 15.3177 1.375 17.1875 1.375C19.0573 1.375 20.5749 2.86231 20.6238 4.72012C24.6846 6.15292 27.5 10.0088 27.5 14.4375ZM14.4375 28.875C14.4375 30.3875 15.675 31.625 17.1875 31.625C18.7 31.625 19.9375 30.3875 19.9375 28.875H14.4375ZM24.75 14.4375V22.5695L26.9304 24.75H7.4445L9.62496 22.5695V14.4375C9.62496 10.9165 12.0536 7.88827 15.442 7.08546L16.5 6.83478V4.8125C16.5 4.43064 16.8056 4.125 17.1875 4.125C17.5693 4.125 17.875 4.43064 17.875 4.8125V6.83478L18.933 7.08546C22.3213 7.88827 24.75 10.9165 24.75 14.4375Z" fill="white"/>
</mask>
<g mask="url(#mask0_12_186)">
<rect width="33" height="33" fill="#C2D1D9"/>
</g>
</svg>
