<svg width="34" height="34" viewBox="0 0 34 34" fill="none" xmlns="http://www.w3.org/2000/svg">
<path fill-rule="evenodd" clip-rule="evenodd" d="M8.78914 14.4558C8.39861 14.0653 8.39861 13.4321 8.78914 13.0416L9.37319 12.4576C9.76342 12.0673 10.396 12.067 10.7866 12.4568L16.582 18.2396L22.3774 12.4568C22.7681 12.067 23.4006 12.0673 23.7909 12.4576L24.3749 13.0416C24.7654 13.4321 24.7654 14.0653 24.3749 14.4558L16.582 22.2487L8.78914 14.4558Z" fill="#C2D1D9"/>
<mask id="mask0_12_231" style="mask-type:alpha" maskUnits="userSpaceOnUse" x="8" y="12" width="17" height="11">
<path fill-rule="evenodd" clip-rule="evenodd" d="M8.78914 14.4558C8.39861 14.0653 8.39861 13.4321 8.78914 13.0416L9.37319 12.4576C9.76342 12.0673 10.396 12.067 10.7866 12.4568L16.582 18.2396L22.3774 12.4568C22.7681 12.067 23.4006 12.0673 23.7909 12.4576L24.3749 13.0416C24.7654 13.4321 24.7654 14.0653 24.3749 14.4558L16.582 22.2487L8.78914 14.4558Z" fill="white"/>
</mask>
<g mask="url(#mask0_12_231)">
<rect width="34" height="34" fill="#E5E5E5"/>
</g>
</svg>
