<svg width="22" height="23" viewBox="0 0 22 23" fill="none" xmlns="http://www.w3.org/2000/svg">
<path d="M10.7511 13.3982L10.124 14.0253L10.7511 14.6524L11.3782 14.0253L10.7511 13.3982ZM11.638 5.41629C11.638 4.92648 11.2409 4.52942 10.7511 4.52942C10.2613 4.52942 9.86425 4.92648 9.86425 5.41629L11.638 5.41629ZM5.68962 9.59092L10.124 14.0253L11.3782 12.7711L6.94386 8.33669L5.68962 9.59092ZM11.3782 14.0253L15.8126 9.59092L14.5584 8.33669L10.124 12.7711L11.3782 14.0253ZM11.638 13.3982L11.638 5.41629L9.86425 5.41629L9.86425 13.3982L11.638 13.3982Z" fill="white"/>
<path d="M4.54298 15.1721L4.54298 16.059C4.54298 17.0386 5.33712 17.8328 6.31674 17.8328L15.1855 17.8328C16.1651 17.8328 16.9593 17.0386 16.9593 16.059V15.1721" stroke="white" stroke-width="1.77376"/>
</svg>
