<svg width="59" height="59" viewBox="0 0 59 59" fill="none" xmlns="http://www.w3.org/2000/svg">
<circle cx="29.5" cy="29.5" r="28.5923" fill="white" stroke="#FF4A4A" stroke-width="1.81538"/>
<path fill-rule="evenodd" clip-rule="evenodd" d="M37.3127 28.0411L40.1654 25.1884C41.0315 24.3222 41.4646 23.8892 41.6961 23.422C42.1365 22.5332 42.1365 21.4897 41.6961 20.6008C41.4646 20.1337 41.0315 19.7006 40.1654 18.8345C39.2993 17.9684 38.8663 17.5353 38.3991 17.3039C37.5103 16.8634 36.4667 16.8634 35.5779 17.3039C35.1107 17.5353 34.6777 17.9684 33.8116 18.8345L30.9228 21.7233C32.4539 24.3452 34.6557 26.5302 37.3127 28.0411ZM28.6125 24.0336L17.6988 34.9473C17.0236 35.6225 16.686 35.96 16.4641 36.3748C16.2421 36.7895 16.1485 37.2577 15.9612 38.194L14.9837 43.0817C14.878 43.61 14.8252 43.8742 14.9755 44.0245C15.1258 44.1748 15.3899 44.1219 15.9183 44.0163L20.8059 43.0387L20.8059 43.0387C21.7423 42.8515 22.2104 42.7578 22.6251 42.5359C23.0399 42.3139 23.3775 41.9763 24.0527 41.3011L34.9963 30.3574C32.4204 28.7441 30.2415 26.5802 28.6125 24.0336Z" fill="#FF4A4A"/>
</svg>
