<svg width="20" height="20" viewBox="0 0 20 20" fill="none" xmlns="http://www.w3.org/2000/svg">
<path fill-rule="evenodd" clip-rule="evenodd" d="M10.0001 1.66669C6.77508 1.66669 4.16675 4.27502 4.16675 7.50002C4.16675 11.875 10.0001 18.3334 10.0001 18.3334C10.0001 18.3334 15.8334 11.875 15.8334 7.50002C15.8334 4.27502 13.2251 1.66669 10.0001 1.66669ZM10 9.58333C8.85 9.58333 7.91667 8.65 7.91667 7.5C7.91667 6.35 8.85 5.41667 10 5.41667C11.15 5.41667 12.0833 6.35 12.0833 7.5C12.0833 8.65 11.15 9.58333 10 9.58333Z" fill="#C2D1D9"/>
<mask id="mask0_12_347" style="mask-type:alpha" maskUnits="userSpaceOnUse" x="4" y="1" width="12" height="18">
<path fill-rule="evenodd" clip-rule="evenodd" d="M10.0001 1.66669C6.77508 1.66669 4.16675 4.27502 4.16675 7.50002C4.16675 11.875 10.0001 18.3334 10.0001 18.3334C10.0001 18.3334 15.8334 11.875 15.8334 7.50002C15.8334 4.27502 13.2251 1.66669 10.0001 1.66669ZM10 9.58333C8.85 9.58333 7.91667 8.65 7.91667 7.5C7.91667 6.35 8.85 5.41667 10 5.41667C11.15 5.41667 12.0833 6.35 12.0833 7.5C12.0833 8.65 11.15 9.58333 10 9.58333Z" fill="white"/>
</mask>
<g mask="url(#mask0_12_347)">
<rect width="20" height="20" fill="#FF9551"/>
</g>
</svg>
