<svg width="28" height="29" viewBox="0 0 28 29" fill="none" xmlns="http://www.w3.org/2000/svg">
<path fill-rule="evenodd" clip-rule="evenodd" d="M27.44 14.6142C27.44 13.6076 27.3509 12.6397 27.1855 11.7106H14V17.2016H21.5345C21.21 18.976 20.2236 20.4794 18.7409 21.4859V25.0476H23.2655C25.9127 22.5764 27.44 18.9372 27.44 14.6142Z" fill="#4285F4"/>
<path fill-rule="evenodd" clip-rule="evenodd" d="M14 28.4867C17.78 28.4867 20.9491 27.2156 23.2655 25.0476L18.7409 21.4859C17.4873 22.3376 15.8836 22.8409 14 22.8409C10.3536 22.8409 7.26727 20.3438 6.16636 16.9886H1.48909V20.6665C3.79273 25.3057 8.52728 28.4867 14 28.4867Z" fill="#34A853"/>
<path fill-rule="evenodd" clip-rule="evenodd" d="M6.16637 16.9886C5.88637 16.1369 5.72727 15.2271 5.72727 14.2915C5.72727 13.3559 5.88637 12.4462 6.16637 11.5944V7.9166H1.48909C0.540909 9.83295 0 12.0009 0 14.2915C0 16.5821 0.540909 18.7501 1.48909 20.6665L6.16637 16.9886Z" fill="#FBBC05"/>
<path fill-rule="evenodd" clip-rule="evenodd" d="M14 5.74214C16.0555 5.74214 17.9009 6.45835 19.3518 7.86497L23.3673 3.79352C20.9427 1.50293 17.7736 0.0963135 14 0.0963135C8.52728 0.0963135 3.79273 3.27733 1.48909 7.91659L6.16636 11.5944C7.26727 8.2392 10.3536 5.74214 14 5.74214Z" fill="#EA4335"/>
</svg>
