<svg width="26" height="30" viewBox="0 0 26 30" fill="none" xmlns="http://www.w3.org/2000/svg">
<g filter="url(#filter0_d_88_367)">
<path d="M21 10L21 9C21 8.07003 21 7.60504 20.8978 7.22354C20.6204 6.18827 19.8117 5.37962 18.7765 5.10222C18.395 5 17.93 5 17 5" stroke="white" stroke-width="2" stroke-linejoin="round"/>
<path d="M21 14L21 15C21 15.93 21 16.395 20.8978 16.7765C20.6204 17.8117 19.8117 18.6204 18.7765 18.8978C18.395 19 17.93 19 17 19" stroke="white" stroke-width="2" stroke-linejoin="round"/>
<path d="M11 19L10 19C8.13077 19 7.19615 19 6.5 18.5981C6.04394 18.3348 5.66523 17.9561 5.40192 17.5C5 16.8038 5 15.8692 5 14" stroke="white" stroke-width="2" stroke-linejoin="round"/>
<path d="M11 5L10 5C8.13077 5 7.19615 5 6.5 5.40192C6.04394 5.66523 5.66523 6.04394 5.40192 6.5C5 7.19615 5 8.13077 5 10" stroke="white" stroke-width="2" stroke-linejoin="round"/>
<path d="M11 21L11 3" stroke="white" stroke-width="2" stroke-linecap="round" stroke-linejoin="round"/>
</g>
<defs>
<filter id="filter0_d_88_367" x="-3" y="0" width="32" height="32" filterUnits="userSpaceOnUse" color-interpolation-filters="sRGB">
<feFlood flood-opacity="0" result="BackgroundImageFix"/>
<feColorMatrix in="SourceAlpha" type="matrix" values="0 0 0 0 0 0 0 0 0 0 0 0 0 0 0 0 0 0 127 0" result="hardAlpha"/>
<feOffset dy="4"/>
<feGaussianBlur stdDeviation="2"/>
<feComposite in2="hardAlpha" operator="out"/>
<feColorMatrix type="matrix" values="0 0 0 0 0 0 0 0 0 0 0 0 0 0 0 0 0 0 0.25 0"/>
<feBlend mode="normal" in2="BackgroundImageFix" result="effect1_dropShadow_88_367"/>
<feBlend mode="normal" in="SourceGraphic" in2="effect1_dropShadow_88_367" result="shape"/>
</filter>
</defs>
</svg>
