<svg width="15" height="17" viewBox="0 0 15 17" fill="none" xmlns="http://www.w3.org/2000/svg">
<path fill-rule="evenodd" clip-rule="evenodd" d="M7.5 8.66667C9.8019 8.66667 11.6667 6.8019 11.6667 4.5C11.6667 2.1981 9.8019 0.333333 7.5 0.333333C5.1981 0.333333 3.33333 2.1981 3.33333 4.5C3.33333 6.8019 5.1981 8.66667 7.5 8.66667ZM7.50002 2.00002C8.88145 2.00002 10 3.11859 10 4.50002C10 5.88145 8.88145 7.00002 7.50002 7.00002C6.11859 7.00002 5.00002 5.88145 5.00002 4.50002C5.00002 3.11859 6.11859 2.00002 7.50002 2.00002ZM15 16.1667C15 16.6269 14.6269 17 14.1667 17C13.7064 17 13.3333 16.6269 13.3333 16.1667V14.5C13.3333 13.2833 10.13 12 7.5 12C4.87 12 1.66667 13.2833 1.66667 14.5L1.66667 16.1667C1.66667 16.6269 1.29357 17 0.833334 17C0.373096 17 0 16.6269 0 16.1667V14.5C0 11.9461 4.02582 10.3333 7.5 10.3333C10.9742 10.3333 15 11.9461 15 14.5V16.1667Z" fill="#FF9551"/>
</svg>
