<svg width="571" height="593" viewBox="0 0 571 593" fill="none" xmlns="http://www.w3.org/2000/svg">
<g clip-path="url(#clip0_14_733)">
<path d="M130 338.333H438.545C440.312 338.333 442.061 337.985 443.694 337.309C445.327 336.632 446.81 335.641 448.059 334.392C449.309 333.142 450.3 331.659 450.976 330.027C451.652 328.394 452 326.644 452 324.877V146.455C452.002 145.263 451.844 144.075 451.529 142.925C450.754 140.075 449.064 137.559 446.717 135.765C444.37 133.971 441.499 132.999 438.545 133H318.031C315.22 137.736 313.487 143.033 312.957 148.515C311.462 164.451 320.6 179.184 328.776 192.95C336.952 206.715 344.749 222.72 340.419 238.135C337.491 248.532 329.557 256.057 319.712 260.567C310.253 264.753 299.847 266.338 289.57 265.157C283.398 264.378 277.318 262.99 271.419 261.013C263.683 258.501 256.128 255.244 248.584 251.95C248.578 251.95 248.578 251.95 248.572 251.944C248.442 251.888 248.305 251.826 248.175 251.77C242.337 249.221 236.506 246.665 230.588 244.413C223.654 241.701 216.456 239.718 209.112 238.495C197.952 236.746 186.699 237.378 176.743 242.44C160.515 250.685 151.817 268.501 145.012 285.387C138.139 302.458 131.979 320.101 130 338.333Z" fill="#FF9551"/>
<path d="M22 225V315.806C21.9998 318.734 22.5764 321.633 23.6968 324.338C24.8172 327.043 26.4595 329.501 28.5298 331.571C30.6002 333.642 33.058 335.284 35.7631 336.404C38.4682 337.525 41.3675 338.101 44.2954 338.101H129.283C130.753 324.399 129.519 310.748 124.123 298.012C112.364 270.238 83.9111 253.812 56.7846 240.624C45.385 235.084 33.7901 229.739 22 225Z" fill="#FF9551"/>
<path d="M22 324.228V145.129C22.0042 141.383 23.4942 137.792 26.1429 135.143C28.7917 132.494 32.383 131.004 36.1289 131H439.398C443.144 131.004 446.735 132.494 449.384 135.143C452.033 137.792 453.522 141.383 453.527 145.129V324.228C453.523 327.974 452.033 331.565 449.384 334.214C446.735 336.863 443.144 338.353 439.398 338.357H36.1289C32.3829 338.353 28.7916 336.863 26.1428 334.214C23.4941 331.565 22.0042 327.974 22 324.228ZM36.1289 132.245C32.7131 132.249 29.4384 133.608 27.0231 136.023C24.6078 138.438 23.2492 141.713 23.2454 145.129V324.228C23.2491 327.644 24.6077 330.918 27.023 333.334C29.4383 335.749 32.7131 337.108 36.1289 337.112H439.398C442.814 337.108 446.088 335.749 448.504 333.334C450.919 330.918 452.278 327.644 452.281 324.228V145.129C452.277 141.713 450.919 138.438 448.504 136.023C446.088 133.608 442.814 132.249 439.398 132.245H36.1289Z" fill="#3F3D56"/>
<path d="M177 335.549H195.196C198.308 325.07 202.799 313.963 206.901 303.841C214.771 284.434 224.825 263.957 243.589 254.481C251.601 250.435 260.337 248.855 269.259 248.941C281.583 249.057 294.254 252.366 305.854 256.75C310.6 258.54 315.302 260.507 319.985 262.518C337.63 270.1 355.083 278.359 374.059 280.591C398.07 283.413 426.301 272.671 432.859 249.531C437.864 231.815 428.85 213.422 419.396 197.6C409.942 181.778 399.375 164.849 401.101 146.531C401.108 146.469 401.114 146.401 401.126 146.34C401.776 139.76 405.705 135.032 411.192 132H387.298C386.983 149.089 396.87 164.173 405.766 179.066C415.22 194.882 424.234 213.281 419.229 230.997C412.671 254.131 358.367 227.013 334.355 224.185C327.575 223.391 338.346 226.214 331.881 224.185C321.74 221.005 320.616 250.164 310.748 245.884C304.605 243.216 298.455 240.565 292.225 238.21C289.645 237.232 287.009 236.316 284.342 235.468C284.336 235.468 284.336 235.468 284.33 235.461C266.425 229.792 246.844 227.584 230.3 235.781C230.189 235.837 230.071 235.892 229.96 235.947C211.195 245.417 201.141 265.894 193.272 285.301C186.769 301.345 180.205 318.626 177 335.549Z" fill="#3F3D56"/>
<path d="M269.117 245.373H52.6867C50.9133 245.373 49.2125 244.669 47.9585 243.415C46.7045 242.161 46 240.46 46 238.687C46 236.913 46.7045 235.212 47.9585 233.958C49.2125 232.704 50.9133 232 52.6867 232H269.117C270.891 232 272.591 232.704 273.845 233.958C275.099 235.212 275.804 236.913 275.804 238.687C275.804 240.46 275.099 242.161 273.845 243.415C272.591 244.669 270.891 245.373 269.117 245.373Z" fill="#3F3D56"/>
<path d="M113.041 207H52.075C50.4638 207 48.9186 207.64 47.7793 208.779C46.6401 209.919 46 211.464 46 213.075C46 214.686 46.6401 216.231 47.7793 217.371C48.9186 218.51 50.4638 219.15 52.075 219.15H113.041C114.652 219.15 116.197 218.51 117.336 217.371C118.476 216.231 119.116 214.686 119.116 213.075C119.116 211.464 118.476 209.919 117.336 208.779C116.197 207.64 114.652 207 113.041 207H113.041Z" fill="#3F3D56"/>
<path d="M178.192 565.274L165.73 565.169L160.214 515.982L178.605 516.138L178.192 565.274Z" fill="#FFB6B6"/>
<path d="M138.276 585.09C138.264 586.567 138.84 587.989 139.875 589.042C140.911 590.096 142.322 590.696 143.799 590.71L168.576 590.917L172.913 582.125L174.506 590.962L183.855 591.047L181.494 559.529L178.242 559.313L164.975 558.398L160.695 558.111L160.62 567.029L140.717 580.528C139.971 581.035 139.36 581.714 138.934 582.509C138.509 583.303 138.283 584.189 138.276 585.09Z" fill="#2F2E41"/>
<path d="M304.625 565.274L292.163 565.169L286.647 515.982L305.038 516.138L304.625 565.274Z" fill="#FFB6B6"/>
<path d="M264.709 585.09C264.698 586.567 265.273 587.989 266.308 589.042C267.344 590.096 268.755 590.696 270.232 590.71L295.009 590.917L299.346 582.125L300.939 590.962L310.288 591.047L307.927 559.529L304.675 559.313L291.408 558.398L287.128 558.111L287.053 567.029L267.15 580.528C266.405 581.035 265.793 581.714 265.368 582.509C264.942 583.303 264.716 584.189 264.709 585.09Z" fill="#2F2E41"/>
<path d="M162.819 171.374L218.904 128.211C221.275 126.375 222.829 123.681 223.231 120.709C223.632 117.738 222.85 114.728 221.052 112.328C220.122 111.087 218.948 110.048 217.604 109.275C216.259 108.502 214.771 108.011 213.23 107.832C211.689 107.653 210.128 107.789 208.642 108.233C207.156 108.677 205.775 109.419 204.585 110.413L147.701 157.035L111.941 183.908C110.172 182.879 108.128 182.42 106.089 182.593C104.049 182.765 102.112 183.562 100.541 184.874C98.9701 186.186 97.8411 187.95 97.3074 189.926C96.7737 191.902 96.8614 193.995 97.5583 195.92C98.2553 197.844 99.5279 199.508 101.203 200.684C102.878 201.86 104.875 202.492 106.922 202.494C108.969 202.496 110.967 201.867 112.644 200.694C114.322 199.521 115.597 197.86 116.298 195.937L162.819 171.374Z" fill="#FFB6B6"/>
<path d="M208.531 181.296L206.059 236.51L290.024 246.67C283.417 224.484 272.583 193.669 277.548 178.229L208.531 181.296Z" fill="#A0616A"/>
<path d="M256.26 80.0747H230.395L219.288 99.0818L213.995 98.7896C203.68 102.762 199.568 106.874 193.876 117.829L173.871 134.628L189.289 153.13C199.939 151.385 203.779 143.118 200.397 127.936C200.397 127.936 188.735 148.261 205.534 158.26C205.534 158.26 202.538 177.1 205.534 176.898C208.531 176.695 215.432 172.861 208.531 176.695C201.629 180.529 202.811 180.695 203.037 181.937C206.764 202.47 209.847 217.888 209.847 217.888L282.829 225.084C282.829 225.084 278.624 180.947 278.852 178.438C279.081 175.928 277.547 182.063 279.081 175.928C280.615 169.793 282.915 172.094 280.615 169.793C278.314 167.493 296.429 165.512 289.359 154.456L313.001 148.289L299.786 116.881C299.786 106.276 282.754 97.6789 272.149 97.6789H270.791L256.26 80.0747Z" fill="#E6E6E6"/>
<path d="M283.784 216.744C255.232 226.565 229.527 224.409 207.792 205.553C207.792 205.553 201.675 228.167 195.482 225.084C189.29 222 192.35 230.629 190.649 233.792C188.843 237.151 190.94 242.817 184.975 244.744C179.01 246.67 181.251 252.331 179.32 256.497C165.807 285.654 150.375 326.924 139.95 379.27C129.237 433.06 155.369 523.178 155.369 523.178L180.038 521.122L186.206 403.94L214.414 354.409C214.414 354.409 228.272 346.34 219.574 342.247C210.876 338.154 216.703 333.082 223.041 334.076C229.378 335.07 236.574 302.177 236.574 302.177C227.538 324.885 283.857 525.234 283.857 525.234L307.499 523.178L294.137 243.586L283.784 216.744Z" fill="#2F2E41"/>
<path d="M271.61 32.3569C274.414 39.3398 282.324 53.0719 283.395 60.5631L282.913 60.0889C281.993 61.6603 280.948 63.1549 279.787 64.5581C277.707 62.3735 275.195 60.6461 272.411 59.4859C273.931 62.6056 274.812 65.9982 275 69.4636C269.851 73.9477 256.7 71.2423 250.13 73.632C239.556 77.4683 228.33 78.834 217.246 79.9682C213.311 80.3732 208.907 80.6191 206.15 78.2943C203.393 75.9695 205.035 71.6643 203.552 68.4081C192.987 45.2138 202.737 36.8454 211.021 26.3282C212.844 24.0138 212.837 20.5599 215.055 18.3517C218.133 15.2908 222.851 14.3493 227.201 13.5951C226.071 13.6546 224.945 13.4223 223.931 12.9204C222.917 12.4185 222.049 11.664 221.411 10.7296C220.851 9.78807 220.562 8.71026 220.576 7.61501C220.59 6.51977 220.906 5.44965 221.489 4.52267C223.045 1.94348 226.278 0.443643 229.397 0.0689594C232.469 -0.139694 235.556 0.125626 238.548 0.855608C240.486 1.11052 242.363 1.7104 244.09 2.62686C244.904 3.06152 245.567 3.73453 245.989 4.55589C246.411 5.37725 246.572 6.30783 246.451 7.22323C246.191 8.06855 245.743 8.8443 245.142 9.49261C244.54 10.1409 243.8 10.6451 242.977 10.9675C241.721 11.4983 240.4 11.8599 239.049 12.0426C245.255 11.2373 251.558 12.3406 257.121 15.2056C264.092 18.9244 268.797 25.3778 271.61 32.3569Z" fill="#2F2E41"/>
<path d="M233.861 71.5057C247.624 71.5057 258.781 60.3483 258.781 46.5849C258.781 32.8216 247.624 21.6642 233.861 21.6642C220.097 21.6642 208.94 32.8216 208.94 46.5849C208.94 60.3483 220.097 71.5057 233.861 71.5057Z" fill="#FFB6B6"/>
<path d="M257.84 33.2228C256.395 37.5898 252.266 38.997 248.45 39.8746C247.246 40.1551 246.036 40.4165 244.814 40.649C244.363 40.0854 243.883 39.533 243.383 39.0108C241.302 36.8263 238.79 35.0989 236.006 33.9387C237.21 36.403 238.01 39.0448 238.376 41.763C236.069 42.0978 233.749 42.3713 231.416 42.5837C229.442 43.0038 227.382 42.6496 225.662 41.5943C223.943 40.5389 222.694 38.8632 222.174 36.9133C220.05 40.3861 217.539 43.6567 214.106 45.0362C212.142 45.7418 210.004 45.7998 208.005 45.2017C206.006 44.6037 204.251 43.381 202.997 41.713C200.941 39.204 199.795 35.8334 198.972 32.5804C197.997 28.7132 197.456 24.2584 199.369 21.8048C200.902 19.8191 203.546 19.7834 205.986 19.9596C211.371 20.3726 216.699 21.3386 221.886 22.8421L222.325 23.8294C221.433 18.4741 223.367 13.3216 226.945 11.4891C229.358 10.2639 232.261 10.4694 235.082 10.7179C238.705 10.8796 242.285 11.572 245.708 12.7729C249.634 14.2832 252.998 16.9696 255.339 20.4648C257.843 24.2665 259.087 29.4515 257.84 33.2228Z" fill="#2F2E41"/>
<path d="M222.314 9.93061C222.56 9.85801 221.923 9.95125 222.144 9.95718C222.034 9.95081 221.925 9.93554 221.817 9.91152C221.799 9.90787 221.551 9.82869 221.716 9.88685C221.346 9.77617 221.016 9.56071 220.765 9.26647C220.18 8.54256 219.721 7.72521 219.407 6.84872C219.011 5.69046 218.374 4.62904 217.539 3.73414C217.302 3.49603 217.012 3.31718 216.693 3.21211C216.374 3.10703 216.034 3.07869 215.702 3.12939C215.37 3.18009 215.054 3.3084 214.781 3.5039C214.508 3.69941 214.285 3.95658 214.129 4.25457C213.644 5.32818 214.087 6.65101 214.434 7.70547C214.791 8.80107 215.322 9.83187 216.008 10.7581C217.157 12.2728 218.721 13.4207 220.511 14.0618C222.582 14.8141 224.841 14.8787 226.952 14.2458C227.231 14.1301 227.47 13.9358 227.641 13.6865C227.811 13.4373 227.906 13.1438 227.912 12.8419C227.919 12.54 227.837 12.2428 227.678 11.9863C227.519 11.7298 227.288 11.5252 227.014 11.3975L223.494 9.95631C223.308 9.87476 223.109 9.83051 222.906 9.8261C222.704 9.82168 222.503 9.85718 222.314 9.93057C222.125 10.004 221.953 10.1138 221.806 10.2538C221.66 10.3938 221.543 10.5613 221.461 10.7466C221.38 10.932 221.336 11.1316 221.331 11.334C221.327 11.5364 221.362 11.7378 221.436 11.9265C221.509 12.1152 221.619 12.2876 221.759 12.4339C221.899 12.5801 222.066 12.6974 222.252 12.779L225.772 14.2201L225.835 11.3717C225.395 11.4986 224.943 11.5758 224.487 11.6022C224 11.651 223.508 11.6302 223.027 11.5406C222.566 11.4802 222.113 11.3698 221.676 11.2112C221.396 11.109 221.122 10.9927 220.854 10.8627C220.757 10.8154 220.66 10.7663 220.564 10.7154C220.571 10.7191 220.162 10.4805 220.341 10.5926C219.886 10.3016 219.459 9.96879 219.065 9.59848C218.926 9.46717 218.798 9.32471 218.682 9.17255C218.482 8.92612 218.296 8.6682 218.126 8.40009C217.779 7.83234 217.504 7.22358 217.308 6.58789C217.218 6.32071 217.143 6.04907 217.081 5.77404C217.064 5.62308 217.037 5.47344 217 5.3262C216.869 4.97535 217.024 5.53107 216.874 5.68309L216.225 6.16133C216.103 6.19764 215.975 6.20606 215.849 6.18595C215.724 6.16584 215.604 6.11773 215.5 6.04518C215.423 5.93698 215.44 5.95493 215.55 6.09903C215.679 6.26861 215.796 6.44618 215.902 6.63066C216.135 7.06497 216.345 7.51081 216.533 7.96646C216.92 8.93552 217.41 9.86045 217.994 10.7255C218.566 11.6005 219.399 12.2725 220.376 12.6459C221.352 13.0192 222.422 13.0748 223.432 12.8047C223.811 12.6538 224.115 12.36 224.279 11.9866C224.444 11.6132 224.454 11.1902 224.31 10.8089C224.155 10.433 223.861 10.1317 223.489 9.96793C223.117 9.80422 222.696 9.79085 222.314 9.93061Z" fill="#2F2E41"/>
<path d="M183.446 280.688C224.141 280.688 257.132 247.698 257.132 207.002C257.132 166.307 224.141 133.316 183.446 133.316C142.75 133.316 109.76 166.307 109.76 207.002C109.76 247.698 142.75 280.688 183.446 280.688Z" fill="white"/>
<path d="M183.446 281.716C168.669 281.716 154.224 277.334 141.937 269.125C129.65 260.915 120.074 249.246 114.419 235.594C108.764 221.942 107.285 206.92 110.168 192.427C113.05 177.934 120.166 164.621 130.615 154.172C141.064 143.723 154.376 136.607 168.869 133.724C183.362 130.841 198.385 132.321 212.037 137.976C225.689 143.631 237.358 153.207 245.568 165.493C253.777 177.78 258.159 192.225 258.159 207.002C258.137 226.81 250.258 245.801 236.252 259.808C222.245 273.815 203.254 281.694 183.446 281.716ZM183.446 134.345C169.075 134.345 155.028 138.606 143.079 146.59C131.131 154.573 121.818 165.921 116.318 179.198C110.819 192.474 109.38 207.083 112.184 221.177C114.987 235.272 121.908 248.218 132.069 258.38C142.23 268.541 155.177 275.461 169.271 278.264C183.365 281.068 197.975 279.629 211.251 274.129C224.528 268.63 235.875 259.317 243.859 247.369C251.843 235.42 256.104 221.372 256.104 207.002C256.082 187.739 248.42 169.27 234.799 155.649C221.177 142.028 202.709 134.366 183.446 134.345Z" fill="#3F3D56"/>
<path d="M173.393 245.352C172.121 245.352 170.866 245.056 169.728 244.487C168.59 243.917 167.6 243.091 166.837 242.073L146.734 215.269C146.089 214.408 145.619 213.428 145.352 212.385C145.084 211.343 145.025 210.258 145.178 209.192C145.33 208.126 145.691 207.101 146.239 206.175C146.787 205.249 147.513 204.44 148.374 203.794C149.235 203.148 150.215 202.679 151.258 202.411C152.3 202.144 153.385 202.085 154.451 202.237C155.516 202.39 156.542 202.75 157.468 203.299C158.394 203.847 159.203 204.573 159.849 205.434L173.001 222.968L206.779 172.301C207.376 171.405 208.144 170.636 209.038 170.037C209.933 169.438 210.936 169.021 211.992 168.81C213.047 168.599 214.134 168.598 215.19 168.807C216.246 169.016 217.251 169.43 218.146 170.027C219.042 170.625 219.811 171.392 220.41 172.287C221.009 173.181 221.426 174.184 221.637 175.24C221.848 176.295 221.849 177.382 221.64 178.438C221.431 179.494 221.017 180.499 220.419 181.394L200.317 211.548L180.214 241.702C179.487 242.793 178.509 243.693 177.362 244.328C176.215 244.962 174.932 245.313 173.622 245.35C173.546 245.351 173.47 245.352 173.393 245.352Z" fill="#FF4A4A"/>
<path d="M102.281 591.777C102.28 591.938 102.312 592.097 102.373 592.245C102.434 592.394 102.524 592.529 102.638 592.643C102.752 592.756 102.887 592.847 103.035 592.908C103.184 592.969 103.343 593.001 103.504 593H363.864C364.188 593 364.499 592.871 364.728 592.642C364.958 592.412 365.087 592.101 365.087 591.777C365.087 591.452 364.958 591.141 364.728 590.912C364.499 590.682 364.188 590.554 363.864 590.554H103.504C103.343 590.553 103.184 590.584 103.035 590.646C102.887 590.707 102.752 590.797 102.638 590.911C102.524 591.024 102.434 591.159 102.373 591.308C102.312 591.457 102.28 591.616 102.281 591.777Z" fill="#CCCCCC"/>
<path d="M332.803 209.523L308.716 142.976C307.687 140.16 305.592 137.861 302.884 136.575C300.175 135.29 297.069 135.121 294.237 136.105C292.772 136.615 291.425 137.417 290.28 138.463C289.135 139.51 288.215 140.778 287.577 142.192C286.938 143.605 286.594 145.134 286.565 146.685C286.537 148.236 286.824 149.776 287.41 151.212L314.55 219.571L329.29 261.803C327.773 263.177 326.715 264.984 326.26 266.98C325.805 268.976 325.976 271.063 326.749 272.958C327.521 274.854 328.859 276.465 330.58 277.574C332.3 278.683 334.321 279.235 336.366 279.155C338.411 279.076 340.383 278.369 342.012 277.13C343.642 275.891 344.85 274.181 345.474 272.231C346.097 270.281 346.106 268.187 345.497 266.232C344.889 264.278 343.694 262.558 342.074 261.307L332.803 209.523Z" fill="#FFB6B6"/>
<path d="M296.555 113.34L316.085 148.289C316.085 148.289 271.076 163.699 270.967 161.134C270.857 158.568 273.203 122.963 273.203 122.963L296.555 113.34Z" fill="#E6E6E6"/>
</g>
<defs>
<clipPath id="clip0_14_733">
<rect width="712.342" height="593" fill="white" transform="translate(-142)"/>
</clipPath>
</defs>
</svg>
