<svg width="642" height="641" viewBox="0 0 642 641" fill="none" xmlns="http://www.w3.org/2000/svg">
<g clip-path="url(#clip0_143_477)">
<path d="M-139 648.435H-94.3932C-86.7641 622.747 -94.3525 562.038 -84.2966 537.225C-65.004 489.648 -40.3572 439.448 5.64497 416.218C25.2865 406.298 46.7027 402.424 68.5738 402.635C98.7869 402.921 129.849 411.032 158.288 421.78C169.921 426.167 181.448 430.991 192.93 435.921C236.187 454.508 278.973 474.754 325.491 480.226C384.355 487.146 453.563 460.81 469.641 404.082C481.911 360.651 459.812 315.562 436.637 276.774C413.461 237.986 387.556 196.484 391.787 151.576C391.802 151.425 391.818 151.259 391.848 151.108C393.44 134.978 403.072 123.386 416.525 115.954H357.949C357.176 157.847 381.413 194.826 403.223 231.337C426.399 270.11 448.497 315.215 436.227 358.646C420.15 415.358 287.023 348.88 228.159 341.945C211.536 340.001 237.942 346.92 222.092 341.945C197.233 334.151 194.477 405.635 170.285 395.143C155.224 388.6 140.148 382.103 124.874 376.329C118.55 373.932 112.089 371.686 105.551 369.606C105.546 369.605 105.54 369.604 105.535 369.601C105.53 369.599 105.525 369.595 105.521 369.591C61.6272 355.691 13.623 350.279 -26.9341 370.374C-27.2071 370.51 -27.4953 370.646 -27.7684 370.781C-73.7705 393.997 -98.4173 444.197 -117.71 491.774C-133.651 531.104 -131.143 606.948 -139 648.435L-139 648.435Z" fill="#F2F2F2"/>
<path d="M227.525 648.278C43.0452 652.186 39 571.377 39 475.261C39 379.144 123.124 303.954 227.371 303.954C331.617 303.954 414.409 379.116 414.409 475.23C414.409 571.345 331.771 648.278 227.525 648.278Z" fill="white"/>
<path d="M196.303 639.197C-21.3951 643.808 -26.1687 548.448 -26.1687 435.024C-26.1687 321.6 73.9139 229.326 196.932 229.326C319.949 229.326 420.032 321.602 420.032 435.024C420.032 548.446 319.321 639.197 196.303 639.197ZM196.932 234.986C77.298 234.986 -18.0152 324.738 -20.0298 435.024C-21.9037 537.604 96.2884 665.608 196.932 635.065C250.904 580.26 403.497 521.232 413.893 435.024C427.113 325.398 316.565 234.986 196.932 234.986L196.932 234.986Z" fill="#3F3D56"/>
<path d="M349.642 620.546H334.326L327.04 561.467L349.646 561.468L349.642 620.546Z" fill="#A0616A"/>
<path d="M350.182 636.524L303.082 636.523V635.927C303.082 631.065 305.014 626.402 308.452 622.964C311.89 619.527 316.552 617.595 321.414 617.595H321.415L330.019 611.068L346.071 617.596L350.182 617.596L350.182 636.524V636.524Z" fill="#2F2E41"/>
<path d="M452.358 462.278C429.099 439.692 402.37 420.982 373.188 406.858L358.304 423.659L367.784 404.302C328.725 386.466 286.324 377.126 243.386 376.899C200.448 376.672 157.951 385.564 118.706 402.986L126.439 419.783L114.565 404.856C83.9096 419.115 55.8557 438.402 31.5651 461.919C29.068 464.246 27.5254 467.418 27.237 470.819C27.1123 472.666 27.3858 474.52 28.0391 476.253C28.6925 477.985 29.7103 479.558 31.0239 480.863C34.7664 482.635 40.0995 486.701 48.0235 497.862C50.4535 500.258 53.7234 501.611 57.1364 501.632C60.5494 501.653 63.8357 500.341 66.2951 497.974C113.354 452.421 176.282 426.953 241.777 426.953C307.271 426.953 370.199 452.421 417.258 497.974C419.717 500.341 423.004 501.653 426.417 501.632C429.829 501.611 433.099 500.258 435.529 497.861C443.503 490.69 445.366 480.552 452.216 481.174C454.629 478.841 456.093 475.698 456.326 472.35C456.427 470.485 456.125 468.619 455.441 466.881C454.756 465.143 453.704 463.573 452.358 462.278Z" fill="#FF9551"/>
<path d="M209.594 501.987L194.278 501.986L186.992 442.908L209.597 442.909L209.594 501.987Z" fill="#A0616A"/>
<path d="M210.133 517.965L163.033 517.963V517.368C163.034 512.506 164.965 507.843 168.403 504.405C171.841 500.967 176.504 499.035 181.366 499.035H181.367L189.97 492.508L206.022 499.036L210.134 499.036L210.133 517.965V517.965Z" fill="#2F2E41"/>
<path d="M367.154 284.475L258.457 295.831L231.749 322.221L189.265 336.093C183.916 337.839 179.228 341.177 175.828 345.66C172.428 350.144 170.478 355.558 170.238 361.18C169.133 387.09 166.948 430.109 164.641 429.658C161.342 429.014 167.936 445.134 172.555 444.199C177.174 443.263 181.976 453.773 178.783 455.642C175.59 457.511 180.909 473.499 180.909 473.499L214.181 468.138C218.346 436.724 233.556 403.613 215.629 380.5C245.99 370.648 272.736 362.409 292.403 357.332L303.04 352.918L325.123 587.564L356.354 588.076C364.971 543.746 369.301 503.848 362.565 475.385C362.565 475.385 363.532 389.88 367.226 390.815C370.919 391.75 367.788 380.611 367.788 380.611C367.788 380.611 364.554 371.124 368.528 367.188C372.502 363.253 370.021 340.105 370.021 340.105C376.587 318.2 374.611 300.113 367.154 284.475V284.475Z" fill="#2F2E41"/>
<path d="M380.005 236.595C381.082 231.767 382.158 226.939 383.235 222.11C386.259 208.589 389.277 195.074 392.291 181.565C396.249 163.865 400.223 145.548 396.819 127.737C396.309 125.058 395.594 122.422 394.682 119.852C389.584 105.271 378.327 92.495 363.399 89.8043L360.96 80.7163L327.65 76.6161L321.346 85.3105C307.776 84.2255 299.721 97.7371 290.36 108.872L286.64 112.592C283.929 115.982 283.373 128.72 281.681 132.431C274.153 148.935 284.526 132.896 284.161 151.031C283.783 169.824 280.087 188.059 279.708 206.85C279.668 208.866 275.329 210.404 274.582 213.939C274.179 215.847 277.541 219.386 277.031 221.519C276.596 223.34 278.768 230.657 278.302 232.538C276.14 241.268 271.243 244.705 271.028 249.01C270.93 250.666 270.683 252.311 270.291 253.923C270.023 255.067 266.268 253.696 265.902 254.858C265.288 256.81 267.991 261.306 267.25 263.26C265.816 267.042 266.781 273.722 265.902 277.178C262.216 291.687 263.632 285.93 255.641 298.59C276.093 304.773 284.927 325.48 305.966 329.207C306.914 326.142 307.859 323.069 308.802 319.988C311.591 320.167 314.396 320.334 317.202 320.488C317.359 323.163 317.518 325.839 317.677 328.498C339.003 329.873 360.391 329.99 381.731 328.847C381.016 326.703 380.445 324.513 380.021 322.292C378.85 316.118 381.368 309.422 381.637 303.31C381.827 298.782 379.674 294.935 379.737 290.059C379.752 289.157 384.819 288.397 384.803 287.478C384.723 279.372 380.117 268.527 381.637 260.564C383.219 252.38 378.201 244.734 380.005 236.598V236.595L380.005 236.595Z" fill="#3F3D56"/>
<path d="M224.194 40.8021C221.37 40.8054 218.662 41.9287 216.665 43.9257C214.668 45.9227 213.545 48.6303 213.542 51.4545V115.641C213.545 118.465 214.668 121.173 216.665 123.17C218.662 125.167 221.37 126.29 224.194 126.293H244.052C246.876 126.29 249.583 125.167 251.58 123.17C253.577 121.173 254.701 118.465 254.704 115.641C257.869 83.3889 256.706 65.9832 254.704 51.4545C254.701 48.6303 253.577 45.9227 251.58 43.9257C249.583 41.9287 246.876 40.8054 244.052 40.8021H224.194V40.8021Z" fill="#EA4335"/>
<path d="M221.714 40.8021C218.89 40.8054 216.183 41.9287 214.186 43.9257C212.189 45.9226 211.065 48.6301 211.062 51.4542C209.921 76.6851 209.128 100.747 211.062 115.641C211.065 118.465 212.188 121.172 214.185 123.17C216.182 125.167 218.89 126.29 221.714 126.293H241.572C244.396 126.29 247.104 125.167 249.101 123.17C251.098 121.173 252.221 118.465 252.224 115.641V51.4545C252.221 48.6303 251.098 45.9228 249.101 43.9258C247.104 41.9288 244.396 40.8054 241.572 40.8022L221.714 40.8021Z" fill="#3F3D56"/>
<path d="M272.835 134.219C272.835 134.219 291.616 133.457 282.057 141.566C275.836 146.843 261.828 183.581 247.275 188.026C245.561 188.548 243.758 188.709 241.979 188.498C240.2 188.287 238.484 187.709 236.94 186.8C235.396 185.891 234.058 184.672 233.01 183.219C231.962 181.766 231.228 180.111 230.853 178.359L217.66 116.869L234.893 114.248L245.395 162.915L272.835 134.219V134.219Z" fill="#A0616A"/>
<path d="M227.23 121.36C233.961 121.36 239.418 115.903 239.418 109.172C239.418 102.44 233.961 96.9836 227.23 96.9836C220.498 96.9836 215.042 102.44 215.042 109.172C215.042 115.903 220.498 121.36 227.23 121.36Z" fill="#A0616A"/>
<path d="M298.311 100.618C309.476 109.003 312.764 136.498 305.748 148.571C292.336 171.648 265.895 189.415 264.768 186.947C263.224 183.568 260.533 188.106 260.624 189.591C260.716 191.076 255.622 190.634 256.216 192.205C256.809 193.777 252.789 194.119 251.043 195.03C251.043 195.03 235.065 195.3 230.024 188.009C224.984 180.718 224.308 170.642 224.308 170.642L218.05 163.279L251.229 143.884L248.494 156.975L265.046 137.703L268.548 129.971L274.137 127.117L275.988 121.291L281.141 118.961L301.52 95.2317L298.311 100.618L298.311 100.618Z" fill="#3F3D56"/>
<path d="M389.987 326.493C391.38 325.575 392.554 324.362 393.427 322.94C394.3 321.519 394.851 319.923 395.041 318.265C395.231 316.608 395.055 314.929 394.526 313.347C393.996 311.765 393.126 310.318 391.978 309.108L394.322 204.844L373.72 208.049L375.173 309.179C373.269 311.244 372.188 313.935 372.136 316.744C372.084 319.552 373.064 322.282 374.89 324.416C376.716 326.55 379.261 327.941 382.044 328.323C384.826 328.706 387.653 328.055 389.987 326.493Z" fill="#A0616A"/>
<path d="M390.885 115.969C390.885 115.969 389.518 117.002 396.527 127.681C397.916 129.798 398.858 138.337 399.517 149.48C399.732 153.11 401.799 155.66 401.959 159.711C402.095 163.149 400.332 168.047 400.437 171.612C400.493 173.514 401.911 175.168 401.959 177.071C401.979 177.864 400.633 178.91 400.652 179.7C400.673 180.552 400.692 181.402 400.712 182.249C401.193 203.427 401.296 222.554 401.775 222.231C402.794 221.542 400.262 225.102 401.528 225.697C402.795 226.291 400.447 229.241 401.052 230.77C401.789 232.632 400.873 234.687 400.293 236.557C398.621 241.956 398.261 246.592 396.807 249.156C398.533 250.147 399.88 251.683 400.637 253.523C401.394 255.364 401.517 257.404 400.986 259.321L371.95 254.072C368.41 248.401 368.921 242.448 371.333 241.411L370.615 222.956L362.345 127.479L386.582 116.658L390.885 115.969V115.969Z" fill="#3F3D56"/>
<path d="M210.669 57.2644C210.252 57.2644 209.913 57.463 209.913 57.7072V61.2497C209.913 61.494 210.252 61.6925 210.669 61.6925C211.086 61.6925 211.425 61.4939 211.425 61.2497V57.7072C211.425 57.463 211.086 57.2644 210.669 57.2644Z" fill="#3F3D56"/>
<path d="M210.669 66.6519C210.252 66.6519 209.913 66.8505 209.913 67.0947V73.9584C209.913 74.2026 210.252 74.4012 210.669 74.4012C211.086 74.4012 211.425 74.2026 211.425 73.9584V67.0947C211.425 66.8505 211.086 66.6519 210.669 66.6519Z" fill="#3F3D56"/>
<path d="M252.829 67.8919C252.606 67.9173 252.403 68.0287 252.262 68.2023C252.12 68.3758 252.053 68.5977 252.073 68.8206V83.2145C252.05 83.3268 252.052 83.4428 252.079 83.5542C252.106 83.6656 252.158 83.7696 252.23 83.8585C252.302 83.9474 252.394 84.0191 252.497 84.0683C252.601 84.1176 252.714 84.1431 252.829 84.1431C252.943 84.1431 253.057 84.1176 253.16 84.0683C253.264 84.0191 253.355 83.9474 253.427 83.8585C253.5 83.7696 253.552 83.6656 253.579 83.5542C253.606 83.4428 253.608 83.3268 253.585 83.2145V68.8206C253.605 68.5977 253.537 68.3758 253.396 68.2023C253.255 68.0287 253.051 67.9173 252.829 67.8919Z" fill="#3F3D56"/>
<path d="M209.429 77.6339C209.012 77.6339 208.673 77.8325 208.673 78.0767V84.9403C208.673 85.1846 209.012 85.3831 209.429 85.3831C209.846 85.3831 210.185 85.1845 210.185 84.9403V78.0767C210.185 77.8325 209.846 77.6339 209.429 77.6339Z" fill="#3F3D56"/>
<path d="M341.972 73.3964C359.164 73.3964 373.101 59.4596 373.101 42.2676C373.101 25.0757 359.164 11.1389 341.972 11.1389C324.78 11.1389 310.843 25.0757 310.843 42.2676C310.843 59.4596 324.78 73.3964 341.972 73.3964Z" fill="#A0616A"/>
<path d="M376.73 56.5705C374.299 61.4339 371.986 64.4756 367.785 67.1943C367.571 66.5745 367.399 65.9413 367.268 65.2988C366.821 66.2984 366.385 67.2958 365.927 68.2977C363.269 69.782 366.138 67.492 361.787 69.1516L358.126 62.8703C357.124 59.8886 358.544 56.6413 360.35 54.0609C362.159 51.4911 364.41 49.1351 365.39 46.1475C366.37 43.1599 365.5 39.2018 362.562 38.0898C359.667 36.9793 356.47 39.0861 353.394 38.7201C349.843 38.3013 347.427 34.5862 347.234 31.0122C347.042 27.438 348.5 24.0063 349.927 20.7356C345.627 23.8171 332.307 29.338 325.055 29.6018C324.86 27.3399 323.814 25.2362 322.13 23.7142C322.425 25.7734 321.923 27.8677 320.728 29.5699C313.628 29.2059 312.294 39.5176 308.628 35.7836C309.773 35.2078 305.556 22.3929 306.7 21.8171C305.819 19.4045 304.94 16.9989 304.063 14.6003C305.694 15.0114 307.338 15.4308 308.98 15.8396C309.082 14.9626 309.348 14.1127 309.766 13.3344C310.936 12.6672 312.181 12.1415 313.475 11.7683C313.892 11.6568 314.32 11.5432 314.752 11.4506C315.392 11.3082 316.039 11.2027 316.69 11.1346C315.746 10.5873 314.794 10.0527 313.848 9.49495C313.735 9.43094 313.633 9.36466 313.52 9.30067C314.849 8.38714 316.237 7.56315 317.676 6.83416C323.742 3.6609 330.037 0.427498 336.875 0.031967C341.318 -0.250872 345.721 1.01671 349.334 3.61842C352.448 5.85567 356.22 6.99036 360.053 6.84296C361.917 6.82876 363.76 7.23921 365.441 8.04317C364.671 8.81903 363.828 9.51993 362.925 10.1364C364.898 10.1877 366.86 10.2413 368.836 10.3031C371.048 12.3162 372.913 14.6797 374.357 17.2989C381.277 29.1206 382.858 44.3234 376.73 56.5705H376.73Z" fill="#2F2E41"/>
<path d="M402.216 553.114C401.875 550.869 401.003 548.738 399.672 546.898C398.342 545.058 396.591 543.563 394.565 542.536C375.556 532.807 355.632 524.978 335.085 519.163L315.857 544.511L330.068 517.764C277.469 503.653 222.183 502.869 169.205 515.482L176.599 535.87L164.52 516.649C140.665 522.647 117.567 531.332 95.6698 542.536C93.6536 543.569 91.9099 545.063 90.5809 546.897C89.2519 548.732 88.3751 550.854 88.0222 553.091C87.6692 555.329 87.85 557.618 88.5498 559.772C89.2496 561.927 90.4486 563.885 92.0491 565.488C100.362 565.999 105.852 573.723 111.331 584.77C113.43 586.842 116.119 588.214 119.028 588.698C121.938 589.183 124.926 588.756 127.584 587.476C164.304 570.011 204.456 560.949 245.118 560.949C285.78 560.949 325.932 570.011 362.652 587.476C365.309 588.756 368.297 589.183 371.206 588.699C374.116 588.215 376.804 586.842 378.903 584.77C382.197 575.838 388.986 570.557 398.186 565.488C399.795 563.896 401 561.942 401.701 559.789C402.402 557.637 402.579 555.348 402.216 553.114Z" fill="#FF9551"/>
<path d="M277.283 595.105C274.368 594.648 271.435 594.248 268.485 593.907L256.922 612.307L265.538 593.593C251.537 592.162 237.435 592.014 223.407 593.15L232.227 612.307L220.354 593.414C215.822 593.844 211.324 594.408 206.859 595.106C205.33 595.332 203.896 595.985 202.722 596.989C201.547 597.994 200.68 599.309 200.22 600.785C199.73 602.272 199.663 603.867 200.026 605.391C200.39 606.915 201.17 608.307 202.28 609.413C207.055 614.09 212.32 620.586 220.972 628.105C221.816 628.96 222.836 629.622 223.961 630.045C225.086 630.468 226.289 630.642 227.488 630.554C232.282 630.199 237.189 630.019 242.071 630.019H242.071C246.953 630.019 251.859 630.199 256.654 630.554C257.853 630.64 259.056 630.465 260.18 630.043C261.305 629.62 262.325 628.959 263.17 628.105C272.105 620.478 276.62 613.485 281.862 609.413C282.972 608.307 283.752 606.915 284.116 605.391C284.48 603.867 284.412 602.272 283.922 600.785C283.462 599.309 282.595 597.994 281.42 596.989C280.246 595.984 278.812 595.331 277.283 595.105Z" fill="#FF9551"/>
</g>
<defs>
<clipPath id="clip0_143_477">
<rect width="889.902" height="640.907" fill="white" transform="translate(-248)"/>
</clipPath>
</defs>
</svg>
