<svg width="854" height="641" viewBox="0 0 854 641" fill="none" xmlns="http://www.w3.org/2000/svg">
<g clip-path="url(#clip0_143_477)">
<path d="M113.331 615.211C112.618 615.244 111.912 615.057 111.309 614.675C110.706 614.293 110.235 613.735 109.959 613.076C109.684 612.418 109.618 611.691 109.77 610.993C109.921 610.296 110.284 609.662 110.808 609.177L111.047 608.229C111.015 608.153 110.984 608.077 110.952 608.001C110.233 606.305 109.03 604.858 107.492 603.843C105.954 602.829 104.151 602.291 102.308 602.298C100.466 602.304 98.6666 602.856 97.1363 603.882C95.6061 604.908 94.4132 606.363 93.7076 608.065C90.8872 614.858 87.2964 621.662 86.4122 628.845C86.0228 632.019 86.1871 635.238 86.8977 638.356C80.2734 623.906 76.8336 608.201 76.8115 592.305C76.8101 588.316 77.0317 584.33 77.4753 580.366C77.8419 577.116 78.3505 573.889 79.0012 570.686C82.5517 553.304 90.1747 537.012 101.244 523.148C106.602 520.225 110.935 515.729 113.659 510.268C114.646 508.304 115.343 506.209 115.729 504.046C115.125 504.125 113.451 494.92 113.907 494.356C113.064 493.078 111.557 492.442 110.637 491.195C106.062 484.993 99.7591 486.075 96.4686 494.504C89.4395 498.052 89.3715 503.935 93.6845 509.594C96.4285 513.194 96.8056 518.065 99.2132 521.919C98.9654 522.236 98.7078 522.543 98.4601 522.861C93.9322 528.683 89.9858 534.935 86.6775 541.527C87.482 534.142 86.5218 526.671 83.8758 519.73C81.194 513.26 76.1676 507.812 71.7412 502.219C66.4244 495.501 55.5218 498.433 54.5851 506.949C54.576 507.031 54.5671 507.114 54.5585 507.196C55.216 507.567 55.8596 507.961 56.4893 508.377C57.2803 508.906 57.8933 509.661 58.2479 510.544C58.6024 511.427 58.682 512.396 58.4763 513.325C58.2705 514.254 57.7889 515.099 57.0946 515.749C56.4003 516.4 55.5258 516.825 54.5855 516.97L54.4892 516.985C54.7234 519.355 55.1374 521.703 55.7276 524.01C50.0491 545.97 62.3086 553.969 79.8135 554.328C80.1999 554.526 80.5765 554.724 80.963 554.913C77.6391 564.332 75.5541 574.144 74.7605 584.101C74.3113 589.975 74.3378 595.877 74.8398 601.747L74.8101 601.539C73.5418 595.011 70.0596 589.121 64.9517 584.864C57.3652 578.632 46.6469 576.337 38.4623 571.328C37.5925 570.769 36.5811 570.471 35.5475 570.468C34.5138 570.466 33.501 570.759 32.6285 571.313C31.7559 571.868 31.0601 572.66 30.623 573.596C30.1859 574.533 30.0258 575.575 30.1616 576.6C30.1726 576.673 30.1837 576.746 30.1951 576.819C31.4151 577.316 32.6031 577.888 33.7519 578.533C34.4094 578.904 35.053 579.297 35.6827 579.714C36.4737 580.242 37.0867 580.997 37.4412 581.88C37.7958 582.763 37.8754 583.733 37.6696 584.661C37.4638 585.59 36.9822 586.435 36.288 587.086C35.5937 587.736 34.7192 588.162 33.7789 588.307L33.6825 588.322C33.6132 588.332 33.5537 588.342 33.4845 588.351C35.5691 593.329 38.495 597.911 42.134 601.895C45.6846 621.066 60.9347 622.885 77.2474 617.302H77.2573C79.0471 625.08 81.6404 632.65 84.9954 639.892H112.638C112.737 639.585 112.826 639.268 112.916 638.961C110.357 639.121 107.788 638.968 105.267 638.505C107.318 635.988 109.369 633.452 111.42 630.935C111.465 630.888 111.508 630.839 111.548 630.787C112.589 629.499 113.639 628.221 114.679 626.933L114.68 626.931C114.735 622.983 114.282 619.044 113.332 615.212L113.331 615.211H113.331Z" fill="#F2F2F2"/>
<path d="M73 648.435H117.607C125.236 622.747 117.648 562.038 127.703 537.225C146.996 489.648 171.643 439.448 217.645 416.218C237.287 406.298 258.703 402.424 280.574 402.635C310.787 402.921 341.849 411.032 370.288 421.78C381.921 426.167 393.448 430.991 404.93 435.921C448.187 454.508 490.973 474.754 537.491 480.226C596.355 487.146 665.563 460.81 681.641 404.082C693.911 360.651 671.812 315.562 648.637 276.774C625.461 237.986 599.556 196.484 603.787 151.576C603.802 151.425 603.818 151.259 603.848 151.108C605.44 134.978 615.072 123.386 628.525 115.954H569.949C569.176 157.847 593.413 194.826 615.223 231.337C638.399 270.11 660.497 315.215 648.227 358.646C632.15 415.358 499.023 348.88 440.159 341.945C423.536 340.001 449.942 346.92 434.092 341.945C409.233 334.151 406.477 405.635 382.285 395.143C367.224 388.6 352.148 382.103 336.874 376.329C330.55 373.932 324.089 371.686 317.551 369.606C317.546 369.605 317.54 369.604 317.535 369.601C317.53 369.599 317.525 369.595 317.521 369.591C273.627 355.691 225.623 350.279 185.066 370.374C184.793 370.51 184.505 370.646 184.232 370.781C138.229 393.997 113.583 444.197 94.29 491.774C78.3492 531.104 80.8566 606.948 73 648.435L73 648.435Z" fill="#F2F2F2"/>
<path d="M439.525 648.278C255.045 652.186 251 571.377 251 475.261C251 379.144 335.124 303.954 439.371 303.954C543.617 303.954 626.409 379.116 626.409 475.23C626.409 571.345 543.771 648.278 439.525 648.278Z" fill="white"/>
<path d="M408.303 639.197C190.605 643.808 185.831 548.448 185.831 435.024C185.831 321.6 285.914 229.326 408.932 229.326C531.949 229.326 632.032 321.602 632.032 435.024C632.032 548.446 531.321 639.197 408.303 639.197ZM408.932 234.986C289.298 234.986 193.985 324.738 191.97 435.024C190.096 537.604 308.288 665.608 408.932 635.065C462.904 580.26 615.497 521.232 625.893 435.024C639.113 325.398 528.565 234.986 408.932 234.986L408.932 234.986Z" fill="#3F3D56"/>
<path d="M561.642 620.546H546.326L539.04 561.467L561.646 561.468L561.642 620.546Z" fill="#A0616A"/>
<path d="M562.182 636.524L515.082 636.523V635.927C515.082 631.065 517.014 626.402 520.452 622.964C523.89 619.527 528.552 617.595 533.414 617.595H533.415L542.019 611.068L558.071 617.596L562.182 617.596L562.182 636.524V636.524Z" fill="#2F2E41"/>
<path d="M664.358 462.278C641.099 439.692 614.37 420.982 585.188 406.858L570.304 423.659L579.784 404.302C540.725 386.466 498.324 377.126 455.386 376.899C412.448 376.672 369.951 385.564 330.706 402.986L338.439 419.783L326.565 404.856C295.91 419.115 267.856 438.402 243.565 461.919C241.068 464.246 239.525 467.418 239.237 470.819C239.112 472.666 239.386 474.52 240.039 476.253C240.692 477.985 241.71 479.558 243.024 480.863C246.766 482.635 252.1 486.701 260.024 497.862C262.454 500.258 265.723 501.611 269.136 501.632C272.549 501.653 275.836 500.341 278.295 497.974C325.354 452.421 388.282 426.953 453.777 426.953C519.271 426.953 582.199 452.421 629.258 497.974C631.717 500.341 635.004 501.653 638.417 501.632C641.829 501.611 645.099 500.258 647.529 497.861C655.503 490.69 657.366 480.552 664.216 481.174C666.629 478.841 668.093 475.698 668.326 472.35C668.427 470.485 668.125 468.619 667.441 466.881C666.756 465.143 665.704 463.573 664.358 462.278Z" fill="#FF9551"/>
<path d="M421.594 501.987L406.278 501.986L398.992 442.908L421.597 442.909L421.594 501.987Z" fill="#A0616A"/>
<path d="M422.133 517.965L375.033 517.963V517.368C375.034 512.506 376.965 507.843 380.403 504.405C383.841 500.967 388.504 499.035 393.366 499.035H393.367L401.97 492.508L418.022 499.036L422.134 499.036L422.133 517.965V517.965Z" fill="#2F2E41"/>
<path d="M579.154 284.475L470.457 295.831L443.749 322.221L401.265 336.093C395.916 337.839 391.228 341.177 387.828 345.66C384.428 350.144 382.478 355.558 382.238 361.18C381.133 387.09 378.948 430.109 376.641 429.658C373.342 429.014 379.936 445.134 384.555 444.199C389.174 443.263 393.976 453.773 390.783 455.642C387.59 457.511 392.909 473.499 392.909 473.499L426.181 468.138C430.346 436.724 445.556 403.613 427.629 380.5C457.99 370.648 484.736 362.409 504.403 357.332L515.04 352.918L537.123 587.564L568.354 588.076C576.971 543.746 581.301 503.848 574.565 475.385C574.565 475.385 575.532 389.88 579.226 390.815C582.919 391.75 579.788 380.611 579.788 380.611C579.788 380.611 576.554 371.124 580.528 367.188C584.502 363.253 582.021 340.105 582.021 340.105C588.587 318.2 586.611 300.113 579.154 284.475V284.475Z" fill="#2F2E41"/>
<path d="M592.005 236.595C593.082 231.767 594.158 226.939 595.235 222.11C598.259 208.589 601.277 195.074 604.291 181.565C608.249 163.865 612.223 145.548 608.819 127.737C608.309 125.058 607.594 122.422 606.682 119.852C601.584 105.271 590.327 92.495 575.399 89.8043L572.96 80.7163L539.65 76.6161L533.346 85.3105C519.776 84.2255 511.721 97.7371 502.36 108.872L498.64 112.592C495.929 115.982 495.373 128.72 493.681 132.431C486.153 148.935 496.526 132.896 496.161 151.031C495.783 169.824 492.087 188.059 491.708 206.85C491.668 208.866 487.329 210.404 486.582 213.939C486.179 215.847 489.541 219.386 489.031 221.519C488.596 223.34 490.768 230.657 490.302 232.538C488.14 241.268 483.243 244.705 483.028 249.01C482.93 250.666 482.683 252.311 482.291 253.923C482.023 255.067 478.268 253.696 477.902 254.858C477.288 256.81 479.991 261.306 479.25 263.26C477.816 267.042 478.781 273.722 477.902 277.178C474.216 291.687 475.632 285.93 467.641 298.59C488.093 304.773 496.927 325.48 517.966 329.207C518.914 326.142 519.859 323.069 520.802 319.988C523.591 320.167 526.396 320.334 529.202 320.488C529.359 323.163 529.518 325.839 529.677 328.498C551.003 329.873 572.391 329.99 593.731 328.847C593.016 326.703 592.445 324.513 592.021 322.292C590.85 316.118 593.368 309.422 593.637 303.31C593.827 298.782 591.674 294.935 591.737 290.059C591.752 289.157 596.819 288.397 596.803 287.478C596.723 279.372 592.117 268.527 593.637 260.564C595.219 252.38 590.201 244.734 592.005 236.598V236.595L592.005 236.595Z" fill="#3F3D56"/>
<path d="M436.194 40.8021C433.37 40.8054 430.662 41.9287 428.665 43.9257C426.668 45.9227 425.545 48.6303 425.542 51.4545V115.641C425.545 118.465 426.668 121.173 428.665 123.17C430.662 125.167 433.37 126.29 436.194 126.293H456.052C458.876 126.29 461.583 125.167 463.58 123.17C465.577 121.173 466.701 118.465 466.704 115.641C469.869 83.3889 468.706 65.9832 466.704 51.4545C466.701 48.6303 465.577 45.9227 463.58 43.9257C461.583 41.9287 458.876 40.8054 456.052 40.8021H436.194V40.8021Z" fill="#EA4335"/>
<path d="M433.714 40.8021C430.89 40.8054 428.183 41.9287 426.186 43.9257C424.189 45.9226 423.065 48.6301 423.062 51.4542C421.921 76.6851 421.128 100.747 423.062 115.641C423.065 118.465 424.188 121.172 426.185 123.17C428.182 125.167 430.89 126.29 433.714 126.293H453.572C456.396 126.29 459.104 125.167 461.101 123.17C463.098 121.173 464.221 118.465 464.224 115.641V51.4545C464.221 48.6303 463.098 45.9228 461.101 43.9258C459.104 41.9288 456.396 40.8054 453.572 40.8022L433.714 40.8021Z" fill="#3F3D56"/>
<path d="M484.835 134.219C484.835 134.219 503.616 133.457 494.057 141.566C487.836 146.843 473.828 183.581 459.275 188.026C457.561 188.548 455.758 188.709 453.979 188.498C452.2 188.287 450.484 187.709 448.94 186.8C447.396 185.891 446.058 184.672 445.01 183.219C443.962 181.766 443.228 180.111 442.853 178.359L429.66 116.869L446.893 114.248L457.395 162.915L484.835 134.219V134.219Z" fill="#A0616A"/>
<path d="M439.23 121.36C445.961 121.36 451.418 115.903 451.418 109.172C451.418 102.44 445.961 96.9836 439.23 96.9836C432.498 96.9836 427.042 102.44 427.042 109.172C427.042 115.903 432.498 121.36 439.23 121.36Z" fill="#A0616A"/>
<path d="M510.311 100.618C521.476 109.003 524.764 136.498 517.748 148.571C504.336 171.648 477.895 189.415 476.768 186.947C475.224 183.568 472.533 188.106 472.624 189.591C472.716 191.076 467.622 190.634 468.216 192.205C468.809 193.777 464.789 194.119 463.043 195.03C463.043 195.03 447.065 195.3 442.024 188.009C436.984 180.718 436.308 170.642 436.308 170.642L430.05 163.279L463.229 143.884L460.494 156.975L477.046 137.703L480.548 129.971L486.137 127.117L487.988 121.291L493.141 118.961L513.52 95.2317L510.311 100.618L510.311 100.618Z" fill="#3F3D56"/>
<path d="M601.987 326.493C603.38 325.575 604.554 324.362 605.427 322.94C606.3 321.519 606.851 319.923 607.041 318.265C607.231 316.608 607.055 314.929 606.526 313.347C605.996 311.765 605.126 310.318 603.978 309.108L606.322 204.844L585.72 208.049L587.173 309.179C585.269 311.244 584.188 313.935 584.136 316.744C584.084 319.552 585.064 322.282 586.89 324.416C588.716 326.55 591.261 327.941 594.044 328.323C596.826 328.706 599.653 328.055 601.987 326.493Z" fill="#A0616A"/>
<path d="M602.885 115.969C602.885 115.969 601.518 117.002 608.527 127.681C609.916 129.798 610.858 138.337 611.517 149.48C611.732 153.11 613.799 155.66 613.959 159.711C614.095 163.149 612.332 168.047 612.437 171.612C612.493 173.514 613.911 175.168 613.959 177.071C613.979 177.864 612.633 178.91 612.652 179.7C612.673 180.552 612.692 181.402 612.712 182.249C613.193 203.427 613.296 222.554 613.775 222.231C614.794 221.542 612.262 225.102 613.528 225.697C614.795 226.291 612.447 229.241 613.052 230.77C613.789 232.632 612.873 234.687 612.293 236.557C610.621 241.956 610.261 246.592 608.807 249.156C610.533 250.147 611.88 251.683 612.637 253.523C613.394 255.364 613.517 257.404 612.986 259.321L583.95 254.072C580.41 248.401 580.921 242.448 583.333 241.411L582.615 222.956L574.345 127.479L598.582 116.658L602.885 115.969V115.969Z" fill="#3F3D56"/>
<path d="M422.669 57.2644C422.252 57.2644 421.913 57.463 421.913 57.7072V61.2497C421.913 61.494 422.252 61.6925 422.669 61.6925C423.086 61.6925 423.425 61.4939 423.425 61.2497V57.7072C423.425 57.463 423.086 57.2644 422.669 57.2644Z" fill="#3F3D56"/>
<path d="M422.669 66.6519C422.252 66.6519 421.913 66.8505 421.913 67.0947V73.9584C421.913 74.2026 422.252 74.4012 422.669 74.4012C423.086 74.4012 423.425 74.2026 423.425 73.9584V67.0947C423.425 66.8505 423.086 66.6519 422.669 66.6519Z" fill="#3F3D56"/>
<path d="M464.829 67.8919C464.606 67.9173 464.403 68.0287 464.262 68.2023C464.12 68.3758 464.053 68.5977 464.073 68.8206V83.2145C464.05 83.3268 464.052 83.4428 464.079 83.5542C464.106 83.6656 464.158 83.7696 464.23 83.8585C464.302 83.9474 464.394 84.0191 464.497 84.0683C464.601 84.1176 464.714 84.1431 464.829 84.1431C464.943 84.1431 465.057 84.1176 465.16 84.0683C465.264 84.0191 465.355 83.9474 465.427 83.8585C465.5 83.7696 465.552 83.6656 465.579 83.5542C465.606 83.4428 465.608 83.3268 465.585 83.2145V68.8206C465.605 68.5977 465.537 68.3758 465.396 68.2023C465.255 68.0287 465.051 67.9173 464.829 67.8919Z" fill="#3F3D56"/>
<path d="M421.429 77.6339C421.012 77.6339 420.673 77.8325 420.673 78.0767V84.9403C420.673 85.1846 421.012 85.3831 421.429 85.3831C421.846 85.3831 422.185 85.1845 422.185 84.9403V78.0767C422.185 77.8325 421.846 77.6339 421.429 77.6339Z" fill="#3F3D56"/>
<path d="M553.972 73.3964C571.164 73.3964 585.101 59.4596 585.101 42.2676C585.101 25.0757 571.164 11.1389 553.972 11.1389C536.78 11.1389 522.843 25.0757 522.843 42.2676C522.843 59.4596 536.78 73.3964 553.972 73.3964Z" fill="#A0616A"/>
<path d="M588.73 56.5705C586.299 61.4339 583.986 64.4756 579.785 67.1943C579.571 66.5745 579.399 65.9413 579.268 65.2988C578.821 66.2984 578.385 67.2958 577.927 68.2977C575.269 69.782 578.138 67.492 573.787 69.1516L570.126 62.8703C569.124 59.8886 570.544 56.6413 572.35 54.0609C574.159 51.4911 576.41 49.1351 577.39 46.1475C578.37 43.1599 577.5 39.2018 574.562 38.0898C571.667 36.9793 568.47 39.0861 565.394 38.7201C561.843 38.3013 559.427 34.5862 559.234 31.0122C559.042 27.438 560.5 24.0063 561.927 20.7356C557.627 23.8171 544.307 29.338 537.055 29.6018C536.86 27.3399 535.814 25.2362 534.13 23.7142C534.425 25.7734 533.923 27.8677 532.728 29.5699C525.628 29.2059 524.294 39.5176 520.628 35.7836C521.773 35.2078 517.556 22.3929 518.7 21.8171C517.819 19.4045 516.94 16.9989 516.063 14.6003C517.694 15.0114 519.338 15.4308 520.98 15.8396C521.082 14.9626 521.348 14.1127 521.766 13.3344C522.936 12.6672 524.181 12.1415 525.475 11.7683C525.892 11.6568 526.32 11.5432 526.752 11.4506C527.392 11.3082 528.039 11.2027 528.69 11.1346C527.746 10.5873 526.794 10.0527 525.848 9.49495C525.735 9.43094 525.633 9.36466 525.52 9.30067C526.849 8.38714 528.237 7.56315 529.676 6.83416C535.742 3.6609 542.037 0.427498 548.875 0.031967C553.318 -0.250872 557.721 1.01671 561.334 3.61842C564.448 5.85567 568.22 6.99036 572.053 6.84296C573.917 6.82876 575.76 7.23921 577.441 8.04317C576.671 8.81903 575.828 9.51993 574.925 10.1364C576.898 10.1877 578.86 10.2413 580.836 10.3031C583.048 12.3162 584.913 14.6797 586.357 17.2989C593.277 29.1206 594.858 44.3234 588.73 56.5705H588.73Z" fill="#2F2E41"/>
<path d="M614.216 553.114C613.875 550.869 613.003 548.738 611.672 546.898C610.342 545.058 608.591 543.563 606.565 542.536C587.556 532.807 567.632 524.978 547.085 519.163L527.857 544.511L542.068 517.764C489.469 503.653 434.183 502.869 381.205 515.482L388.599 535.87L376.52 516.649C352.665 522.647 329.567 531.332 307.67 542.536C305.654 543.569 303.91 545.063 302.581 546.897C301.252 548.732 300.375 550.854 300.022 553.091C299.669 555.329 299.85 557.618 300.55 559.772C301.25 561.927 302.449 563.885 304.049 565.488C312.362 565.999 317.852 573.723 323.331 584.77C325.43 586.842 328.119 588.214 331.028 588.698C333.938 589.183 336.926 588.756 339.584 587.476C376.304 570.011 416.456 560.949 457.118 560.949C497.78 560.949 537.932 570.011 574.652 587.476C577.309 588.756 580.297 589.183 583.206 588.699C586.116 588.215 588.804 586.842 590.903 584.77C594.197 575.838 600.986 570.557 610.186 565.488C611.795 563.896 613 561.942 613.701 559.789C614.402 557.637 614.579 555.348 614.216 553.114Z" fill="#FF9551"/>
<path d="M489.283 595.105C486.368 594.648 483.435 594.248 480.485 593.907L468.922 612.307L477.538 593.593C463.537 592.162 449.435 592.014 435.407 593.15L444.227 612.307L432.354 593.414C427.822 593.844 423.324 594.408 418.859 595.106C417.33 595.332 415.896 595.985 414.722 596.989C413.547 597.994 412.68 599.309 412.22 600.785C411.73 602.272 411.663 603.867 412.026 605.391C412.39 606.915 413.17 608.307 414.28 609.413C419.055 614.09 424.32 620.586 432.972 628.105C433.816 628.96 434.836 629.622 435.961 630.045C437.086 630.468 438.289 630.642 439.488 630.554C444.282 630.199 449.189 630.019 454.071 630.019H454.071C458.953 630.019 463.859 630.199 468.654 630.554C469.853 630.64 471.056 630.465 472.18 630.043C473.305 629.62 474.325 628.959 475.17 628.105C484.105 620.478 488.62 613.485 493.862 609.413C494.972 608.307 495.752 606.915 496.116 605.391C496.48 603.867 496.412 602.272 495.922 600.785C495.462 599.309 494.595 597.994 493.42 596.989C492.246 595.984 490.812 595.331 489.283 595.105Z" fill="#FF9551"/>
</g>
<defs>
<clipPath id="clip0_143_477">
<rect width="889.902" height="640.907" fill="white" transform="translate(-36)"/>
</clipPath>
</defs>
</svg>
