<svg width="461" height="548" viewBox="0 0 461 548" fill="none" xmlns="http://www.w3.org/2000/svg">
<path d="M-65.2987 554.437H-26.9527C-20.3944 532.472 -26.9177 480.564 -18.2732 459.348C-1.68838 418.668 19.4991 375.745 59.0446 355.882C75.9294 347.4 94.3397 344.088 113.141 344.268C139.114 344.513 165.816 351.448 190.263 360.638C200.264 364.389 210.173 368.514 220.043 372.729C257.229 388.622 294.01 405.933 333.999 410.612C384.601 416.528 444.095 394.01 457.916 345.506C468.464 308.37 449.467 269.817 429.544 236.652C409.622 203.487 387.352 168.001 390.99 129.603C391.003 129.474 391.016 129.332 391.042 129.203C392.411 115.411 400.69 105.499 412.256 99.1447H361.901C361.236 134.965 382.072 166.583 400.821 197.802C420.743 230.955 439.74 269.521 429.192 306.656C415.372 355.147 300.93 298.305 250.327 292.376C236.037 290.713 258.737 296.63 245.112 292.376C223.742 285.712 221.373 346.833 200.577 337.862C187.63 332.268 174.669 326.712 161.54 321.776C156.103 319.726 150.548 317.806 144.929 316.027C144.924 316.027 144.919 316.025 144.914 316.023C144.91 316.021 144.906 316.018 144.903 316.014C107.169 304.13 65.9029 299.502 31.0381 316.684C30.8035 316.8 30.5557 316.916 30.321 317.032C-9.22452 336.882 -30.412 379.805 -46.9969 420.485C-60.7003 454.114 -58.5448 518.964 -65.2987 554.436L-65.2987 554.437Z" fill="#F2F2F2"/>
<path d="M249.782 554.303C91.1955 557.644 87.718 488.549 87.718 406.366C87.718 324.182 160.035 259.892 249.65 259.892C339.265 259.892 410.436 324.158 410.436 406.34C410.436 488.522 339.397 554.303 249.782 554.303Z" fill="white"/>
<path d="M222.943 546.537C35.7998 550.48 31.6962 468.944 31.6962 371.962C31.6962 274.98 117.732 196.082 223.483 196.082C329.235 196.082 415.27 274.982 415.27 371.962C415.27 468.942 328.695 546.537 222.943 546.537ZM223.483 200.922C120.641 200.922 38.7053 277.664 36.9734 371.962C35.3625 459.671 136.966 569.12 223.483 543.005C269.88 496.144 401.056 445.673 409.993 371.962C421.357 278.228 326.326 200.922 223.483 200.922L223.483 200.922Z" fill="#3F3D56"/>
<path d="M354.76 530.59H341.593L335.33 480.075L354.763 480.076L354.76 530.59Z" fill="#A0616A"/>
<path d="M355.224 544.252L314.734 544.251V543.742C314.735 539.585 316.395 535.598 319.351 532.658C322.306 529.719 326.314 528.067 330.494 528.067H330.495L337.891 522.486L351.69 528.068L355.224 528.068L355.224 544.253V544.252Z" fill="#2F2E41"/>
<path d="M443.059 395.265C423.065 375.954 400.087 359.955 375.001 347.879L362.206 362.245L370.355 345.694C336.778 330.443 300.329 322.457 263.417 322.263C226.506 322.069 189.974 329.672 156.237 344.569L162.885 358.93L152.677 346.167C126.324 358.359 102.208 374.85 81.3267 394.958C79.1801 396.948 77.8539 399.66 77.6061 402.568C77.4988 404.148 77.734 405.732 78.2956 407.214C78.8572 408.696 79.7322 410.04 80.8614 411.157C84.0787 412.671 88.6632 416.148 95.4751 425.69C97.564 427.74 100.375 428.897 103.309 428.915C106.243 428.933 109.068 427.81 111.182 425.787C151.636 386.837 205.732 365.061 262.034 365.061C318.336 365.061 372.432 386.837 412.886 425.787C415 427.81 417.825 428.933 420.759 428.915C423.693 428.897 426.503 427.74 428.592 425.69C435.447 419.558 437.049 410.89 442.937 411.422C445.011 409.427 446.27 406.74 446.47 403.877C446.557 402.282 446.298 400.687 445.709 399.201C445.12 397.715 444.217 396.372 443.059 395.265V395.265Z" fill="#FF9551"/>
<path d="M234.368 429.218L221.202 429.217L214.938 378.703L234.371 378.704L234.368 429.218Z" fill="#A0616A"/>
<path d="M234.832 442.88L194.343 442.878V442.369C194.343 438.212 196.003 434.225 198.959 431.285C201.914 428.346 205.923 426.694 210.102 426.694H210.103L217.499 421.113L231.298 426.695L234.833 426.695L234.832 442.88V442.88Z" fill="#2F2E41"/>
<path d="M369.814 243.237L276.373 252.947L253.414 275.511L216.893 287.372C212.294 288.865 208.264 291.72 205.341 295.553C202.419 299.386 200.742 304.016 200.537 308.822C199.586 330.977 197.708 367.759 195.725 367.374C192.889 366.823 198.557 380.607 202.528 379.807C206.498 379.006 210.627 387.994 207.882 389.591C205.137 391.189 209.71 404.86 209.71 404.86L238.311 400.276C241.892 373.416 254.967 345.105 239.556 325.342C265.656 316.918 288.648 309.874 305.554 305.532L314.698 301.758L333.682 502.389L360.53 502.828C367.938 464.924 371.659 430.809 365.869 406.472C365.869 406.472 366.701 333.362 369.876 334.162C373.051 334.961 370.359 325.437 370.359 325.437C370.359 325.437 367.579 317.325 370.995 313.96C374.412 310.595 372.278 290.803 372.278 290.803C377.923 272.073 376.224 256.608 369.814 243.237V243.237Z" fill="#2F2E41"/>
<path d="M380.862 202.298C381.787 198.17 382.712 194.041 383.638 189.913C386.237 178.351 388.832 166.795 391.423 155.245C394.825 140.11 398.242 124.449 395.315 109.22C394.877 106.929 394.262 104.675 393.478 102.478C389.096 90.0111 379.419 79.0867 366.586 76.7861L364.489 69.0155L335.854 65.5096L330.435 72.9437C318.77 72.016 311.845 83.5689 303.799 93.0893L300.601 96.27C298.27 99.1691 297.792 110.06 296.337 113.234C289.867 127.345 298.783 113.631 298.469 129.137C298.144 145.206 294.968 160.798 294.642 176.865C294.607 178.589 290.877 179.903 290.235 182.926C289.889 184.557 292.779 187.583 292.34 189.407C291.966 190.964 293.834 197.22 293.433 198.829C291.574 206.293 287.365 209.232 287.18 212.913C287.096 214.329 286.883 215.735 286.546 217.114C286.316 218.092 283.088 216.92 282.774 217.913C282.245 219.583 284.569 223.427 283.932 225.098C282.7 228.331 283.529 234.043 282.774 236.998C279.605 249.404 280.822 244.481 273.952 255.306C291.534 260.592 299.128 278.297 317.214 281.484C318.029 278.864 318.842 276.236 319.652 273.602C322.049 273.755 324.461 273.898 326.873 274.03C327.008 276.317 327.145 278.605 327.281 280.879C345.614 282.054 364 282.154 382.345 281.177C381.73 279.343 381.239 277.471 380.875 275.572C379.869 270.293 382.033 264.567 382.264 259.342C382.427 255.47 380.576 252.181 380.631 248.011C380.644 247.24 384.999 246.591 384.986 245.805C384.917 238.874 380.957 229.601 382.264 222.792C383.624 215.794 379.311 209.257 380.862 202.3V202.298L380.862 202.298Z" fill="#3F3D56"/>
<path d="M246.919 34.8873C244.491 34.8901 242.164 35.8507 240.447 37.5582C238.73 39.2657 237.765 41.5807 237.762 43.9955V98.8773C237.765 101.292 238.73 103.607 240.447 105.315C242.164 107.022 244.491 107.983 246.919 107.985H263.99C266.418 107.983 268.745 107.022 270.462 105.315C272.179 103.607 273.144 101.292 273.147 98.8773C275.868 71.3006 274.868 56.4181 273.147 43.9955C273.144 41.5808 272.179 39.2657 270.462 37.5582C268.745 35.8506 266.418 34.8901 263.99 34.8873H246.919V34.8873Z" fill="#EA4335"/>
<path d="M244.787 34.8873C242.36 34.8902 240.032 35.8506 238.315 37.5581C236.599 39.2656 235.633 41.5806 235.63 43.9953C234.65 65.5687 233.968 86.1428 235.63 98.8771C235.633 101.292 236.599 103.607 238.315 105.315C240.032 107.022 242.36 107.983 244.787 107.985H261.858C264.286 107.983 266.613 107.022 268.33 105.315C270.047 103.607 271.012 101.292 271.015 98.8773V43.9956C271.012 41.5808 270.047 39.2657 268.33 37.5582C266.613 35.8507 264.286 34.8902 261.858 34.8874L244.787 34.8873Z" fill="#3F3D56"/>
<path d="M288.733 114.762C288.733 114.762 304.879 114.111 296.661 121.045C291.313 125.557 279.271 156.969 266.76 160.769C265.287 161.216 263.737 161.353 262.208 161.173C260.678 160.992 259.204 160.498 257.876 159.721C256.549 158.944 255.399 157.901 254.498 156.659C253.597 155.417 252.966 154.002 252.643 152.504L241.303 99.9274L256.117 97.6862L265.145 139.298L288.733 114.762V114.762Z" fill="#A0616A"/>
<path d="M249.529 103.767C255.316 103.767 260.007 99.1016 260.007 93.346C260.007 87.5905 255.316 82.9247 249.529 82.9247C243.742 82.9247 239.051 87.5905 239.051 93.346C239.051 99.1016 243.742 103.767 249.529 103.767Z" fill="#A0616A"/>
<path d="M310.633 86.0321C320.231 93.2015 323.058 116.711 317.027 127.034C305.497 146.765 282.768 161.957 281.798 159.847C280.471 156.958 278.158 160.838 278.236 162.108C278.315 163.378 273.936 162.999 274.446 164.343C274.956 165.687 271.501 165.979 270 166.758C270 166.758 256.265 166.989 251.931 160.755C247.598 154.521 247.017 145.905 247.017 145.905L241.637 139.61L270.159 123.026L267.809 134.22L282.037 117.741L285.048 111.13L289.852 108.69L291.444 103.708L295.873 101.716L313.392 81.4267L310.634 86.0321L310.633 86.0321Z" fill="#3F3D56"/>
<path d="M389.442 279.164C390.64 278.379 391.649 277.342 392.4 276.126C393.15 274.911 393.624 273.546 393.787 272.129C393.95 270.712 393.799 269.276 393.344 267.923C392.889 266.571 392.141 265.334 391.153 264.299L393.169 175.15L375.459 177.89L376.707 264.36C375.071 266.125 374.142 268.427 374.097 270.828C374.052 273.229 374.894 275.563 376.464 277.388C378.034 279.213 380.222 280.402 382.614 280.729C385.006 281.056 387.436 280.499 389.442 279.164V279.164Z" fill="#A0616A"/>
<path d="M390.214 99.1583C390.214 99.1583 389.039 100.041 395.064 109.172C396.259 110.982 397.068 118.283 397.635 127.811C397.82 130.915 399.596 133.095 399.734 136.559C399.851 139.499 398.336 143.687 398.426 146.735C398.474 148.361 399.693 149.776 399.734 151.402C399.752 152.08 398.594 152.974 398.61 153.65C398.628 154.379 398.645 155.105 398.662 155.83C399.076 173.937 399.164 190.292 399.575 190.016C400.452 189.427 398.275 192.471 399.364 192.979C400.452 193.488 398.434 196.01 398.954 197.317C399.588 198.909 398.8 200.666 398.302 202.265C396.865 206.881 396.555 210.845 395.305 213.038C396.789 213.885 397.947 215.198 398.598 216.772C399.248 218.346 399.354 220.09 398.898 221.73L373.937 217.241C370.893 212.392 371.333 207.303 373.407 206.416L372.789 190.636L365.68 108.999L386.515 99.7471L390.214 99.1583V99.1583Z" fill="#3F3D56"/>
<path d="M235.293 48.9632C234.934 48.9632 234.643 49.133 234.643 49.3419V52.3708C234.643 52.5797 234.934 52.7495 235.293 52.7495C235.651 52.7495 235.942 52.5797 235.942 52.3708V49.3419C235.942 49.133 235.651 48.9632 235.293 48.9632Z" fill="#3F3D56"/>
<path d="M235.293 56.9899C234.934 56.9899 234.643 57.1597 234.643 57.3685V63.2372C234.643 63.446 234.934 63.6158 235.293 63.6158C235.651 63.6158 235.942 63.446 235.942 63.2372V57.3685C235.942 57.1597 235.651 56.9899 235.293 56.9899Z" fill="#3F3D56"/>
<path d="M271.535 58.0502C271.344 58.0719 271.169 58.1672 271.047 58.3155C270.926 58.4639 270.868 58.6537 270.885 58.8442V71.1516C270.865 71.2476 270.867 71.3468 270.89 71.4421C270.914 71.5373 270.958 71.6262 271.02 71.7022C271.082 71.7782 271.161 71.8395 271.25 71.8816C271.339 71.9237 271.436 71.9456 271.535 71.9456C271.633 71.9456 271.731 71.9237 271.82 71.8816C271.909 71.8395 271.987 71.7782 272.05 71.7022C272.112 71.6262 272.156 71.5373 272.18 71.4421C272.203 71.3468 272.205 71.2476 272.185 71.1516V58.8442C272.202 58.6537 272.144 58.4639 272.022 58.3155C271.901 58.1672 271.726 58.0719 271.535 58.0502V58.0502Z" fill="#3F3D56"/>
<path d="M234.227 66.3799C233.868 66.3799 233.577 66.5497 233.577 66.7585V72.6272C233.577 72.836 233.868 73.0058 234.227 73.0058C234.585 73.0058 234.876 72.836 234.876 72.6272V66.7585C234.876 66.5497 234.585 66.3799 234.227 66.3799Z" fill="#3F3D56"/>
<path d="M348.167 62.7567C362.946 62.7567 374.926 50.8402 374.926 36.1404C374.926 21.4407 362.946 9.52414 348.167 9.52414C333.388 9.52414 321.407 21.4407 321.407 36.1404C321.407 50.8402 333.388 62.7567 348.167 62.7567Z" fill="#A0616A"/>
<path d="M378.046 48.3699C375.957 52.5283 373.968 55.1291 370.356 57.4537C370.172 56.9238 370.024 56.3823 369.912 55.8329C369.528 56.6877 369.153 57.5405 368.759 58.3971C366.474 59.6662 368.94 57.7082 365.2 59.1273L362.053 53.7565C361.192 51.207 362.413 48.4304 363.965 46.2241C365.52 44.0269 367.455 42.0124 368.298 39.4579C369.14 36.9034 368.392 33.5191 365.866 32.5682C363.378 31.6187 360.63 33.4201 357.985 33.1071C354.933 32.7491 352.856 29.5726 352.69 26.5166C352.525 23.4606 353.778 20.5263 355.005 17.7297C351.308 20.3646 339.858 25.0851 333.624 25.3107C333.456 23.3767 332.557 21.5779 331.109 20.2766C331.363 22.0373 330.932 23.8279 329.904 25.2834C323.801 24.9722 322.654 33.789 319.503 30.5963C320.486 30.104 316.861 19.1468 317.845 18.6545C317.088 16.5916 316.332 14.5347 315.578 12.4838C316.98 12.8353 318.393 13.1939 319.805 13.5435C319.893 12.7936 320.122 12.0669 320.48 11.4015C321.486 10.831 322.557 10.3814 323.669 10.0623C324.028 9.96705 324.395 9.86988 324.767 9.79072C325.317 9.66893 325.873 9.57871 326.433 9.52052C325.622 9.05255 324.803 8.59548 323.99 8.11855C323.893 8.06382 323.805 8.00715 323.708 7.95243C324.85 7.17133 326.044 6.46679 327.28 5.84347C332.495 3.13022 337.907 0.365535 343.785 0.0273403C347.604 -0.214498 351.389 0.86933 354.495 3.0939C357.172 5.00683 360.415 5.97703 363.709 5.851C365.312 5.83886 366.896 6.1898 368.342 6.87722C367.679 7.54061 366.955 8.13991 366.178 8.66703C367.875 8.71089 369.562 8.7567 371.26 8.80959C373.161 10.5308 374.765 12.5517 376.006 14.7912C381.954 24.8993 383.314 37.8982 378.046 48.3699H378.046Z" fill="#2F2E41"/>
<path d="M399.955 472.933C399.662 471.014 398.912 469.192 397.768 467.619C396.624 466.046 395.119 464.767 393.378 463.889C377.037 455.57 359.909 448.876 342.246 443.904L325.716 465.578L337.933 442.708C292.717 430.643 245.191 429.972 199.648 440.757L206.004 458.19L195.62 441.755C175.114 446.883 155.258 454.309 136.434 463.889C134.701 464.772 133.202 466.05 132.059 467.618C130.917 469.186 130.163 471.001 129.86 472.914C129.556 474.827 129.712 476.785 130.313 478.627C130.915 480.469 131.946 482.143 133.321 483.514C140.468 483.951 145.187 490.555 149.897 500C151.702 501.772 154.013 502.945 156.514 503.359C159.015 503.774 161.584 503.409 163.869 502.314C195.435 487.381 229.951 479.633 264.906 479.633C299.861 479.633 334.377 487.381 365.944 502.314C368.228 503.409 370.797 503.774 373.298 503.36C375.799 502.946 378.11 501.772 379.914 500C382.745 492.363 388.582 487.847 396.491 483.514C397.874 482.152 398.909 480.482 399.512 478.641C400.115 476.801 400.267 474.844 399.955 472.933Z" fill="#FF9551"/>
<path d="M292.557 508.838C290.051 508.446 287.53 508.105 284.994 507.813L275.053 523.546L282.46 507.544C270.424 506.321 258.301 506.194 246.242 507.165L253.825 523.546L243.618 507.392C239.723 507.759 235.856 508.241 232.017 508.838C230.703 509.031 229.47 509.589 228.461 510.448C227.451 511.307 226.706 512.432 226.31 513.694C225.889 514.966 225.831 516.329 226.144 517.632C226.456 518.935 227.127 520.126 228.081 521.071C232.186 525.071 236.711 530.625 244.149 537.053C244.875 537.785 245.752 538.351 246.719 538.712C247.686 539.074 248.72 539.223 249.751 539.148C253.872 538.844 258.09 538.69 262.287 538.69H262.287C266.484 538.69 270.702 538.844 274.823 539.148C275.854 539.221 276.888 539.072 277.855 538.71C278.822 538.349 279.698 537.784 280.425 537.053C288.106 530.532 291.987 524.553 296.493 521.071C297.447 520.126 298.118 518.935 298.431 517.632C298.743 516.329 298.686 514.966 298.264 513.694C297.868 512.432 297.123 511.307 296.113 510.448C295.104 509.589 293.871 509.031 292.557 508.838V508.838Z" fill="#FF9551"/>
</svg>
