<svg width="208" height="143" viewBox="0 0 208 143" fill="none" xmlns="http://www.w3.org/2000/svg">
<path d="M57.1101 24.1788C66.9181 10.8252 85.6944 7.951 99.048 17.7591L140.152 47.9495C155.731 59.3922 159.084 81.2978 147.642 96.877L135.21 113.802C123.768 129.381 101.862 132.735 86.2828 121.292L49.2086 94.0613C33.6294 82.6186 30.2762 60.713 41.7189 45.1338L57.1101 24.1788Z" fill="#FF9551"/>
<path d="M20.224 91.448C16.9387 91.448 13.9947 90.9147 11.392 89.848C8.78933 88.7813 6.69867 87.2027 5.12 85.112C3.584 83.0213 2.77333 80.504 2.688 77.56H14.336C14.5067 79.224 15.0827 80.504 16.064 81.4C17.0453 82.2533 18.3253 82.68 19.904 82.68C21.5253 82.68 22.8053 82.3173 23.744 81.592C24.6827 80.824 25.152 79.7787 25.152 78.456C25.152 77.3467 24.768 76.4293 24 75.704C23.2747 74.9787 22.3573 74.3813 21.248 73.912C20.1813 73.4427 18.6453 72.9093 16.64 72.312C13.7387 71.416 11.3707 70.52 9.536 69.624C7.70133 68.728 6.12267 67.4053 4.8 65.656C3.47733 63.9067 2.816 61.624 2.816 58.808C2.816 54.6267 4.33067 51.3627 7.36 49.016C10.3893 46.6267 14.336 45.432 19.2 45.432C24.1493 45.432 28.1387 46.6267 31.168 49.016C34.1973 51.3627 35.8187 54.648 36.032 58.872H24.192C24.1067 57.4213 23.5733 56.2907 22.592 55.48C21.6107 54.6267 20.352 54.2 18.816 54.2C17.4933 54.2 16.4267 54.5627 15.616 55.288C14.8053 55.9707 14.4 56.9733 14.4 58.296C14.4 59.7467 15.0827 60.8773 16.448 61.688C17.8133 62.4987 19.9467 63.3733 22.848 64.312C25.7493 65.2933 28.096 66.232 29.888 67.128C31.7227 68.024 33.3013 69.3253 34.624 71.032C35.9467 72.7387 36.608 74.936 36.608 77.624C36.608 80.184 35.9467 82.5093 34.624 84.6C33.344 86.6907 31.4667 88.3547 28.992 89.592C26.5173 90.8293 23.5947 91.448 20.224 91.448ZM41.167 73.08C41.167 69.4107 41.8497 66.1893 43.215 63.416C44.623 60.6427 46.5217 58.5093 48.911 57.016C51.3003 55.5227 53.967 54.776 56.911 54.776C59.4283 54.776 61.6257 55.288 63.503 56.312C65.423 57.336 66.895 58.68 67.919 60.344V55.288H78.863V91H67.919V85.944C66.8523 87.608 65.359 88.952 63.439 89.976C61.5617 91 59.3643 91.512 56.847 91.512C53.9457 91.512 51.3003 90.7653 48.911 89.272C46.5217 87.736 44.623 85.5813 43.215 82.808C41.8497 79.992 41.167 76.7493 41.167 73.08ZM67.919 73.144C67.919 70.4133 67.151 68.2587 65.615 66.68C64.1217 65.1013 62.287 64.312 60.111 64.312C57.935 64.312 56.079 65.1013 54.543 66.68C53.0497 68.216 52.303 70.3493 52.303 73.08C52.303 75.8107 53.0497 77.9867 54.543 79.608C56.079 81.1867 57.935 81.976 60.111 81.976C62.287 81.976 64.1217 81.1867 65.615 79.608C67.151 78.0293 67.919 75.8747 67.919 73.144ZM92.2845 51.576C90.3645 51.576 88.7858 51.0213 87.5485 49.912C86.3538 48.76 85.7565 47.352 85.7565 45.688C85.7565 43.9813 86.3538 42.5733 87.5485 41.464C88.7858 40.312 90.3645 39.736 92.2845 39.736C94.1618 39.736 95.6978 40.312 96.8925 41.464C98.1298 42.5733 98.7485 43.9813 98.7485 45.688C98.7485 47.352 98.1298 48.76 96.8925 49.912C95.6978 51.0213 94.1618 51.576 92.2845 51.576ZM97.7245 55.288V91H86.7805V55.288H97.7245ZM116.6 61.24C117.88 59.2773 119.48 57.7413 121.4 56.632C123.32 55.48 125.453 54.904 127.8 54.904V66.488H124.792C122.061 66.488 120.013 67.0853 118.648 68.28C117.282 69.432 116.6 71.48 116.6 74.424V91H105.656V55.288H116.6V61.24ZM168.295 55.288V91H157.351V86.136C156.241 87.7147 154.727 88.9947 152.807 89.976C150.929 90.9147 148.839 91.384 146.535 91.384C143.804 91.384 141.393 90.7867 139.303 89.592C137.212 88.3547 135.591 86.584 134.439 84.28C133.287 81.976 132.711 79.2667 132.711 76.152V55.288H143.591V74.68C143.591 77.0693 144.209 78.9253 145.447 80.248C146.684 81.5707 148.348 82.232 150.439 82.232C152.572 82.232 154.257 81.5707 155.495 80.248C156.732 78.9253 157.351 77.0693 157.351 74.68V55.288H168.295ZM190.684 91.512C187.569 91.512 184.796 90.9787 182.364 89.912C179.932 88.8453 178.012 87.3947 176.604 85.56C175.196 83.6827 174.406 81.592 174.236 79.288H185.052C185.18 80.5253 185.756 81.528 186.78 82.296C187.804 83.064 189.062 83.448 190.556 83.448C191.921 83.448 192.966 83.192 193.692 82.68C194.46 82.1253 194.844 81.4213 194.844 80.568C194.844 79.544 194.31 78.7973 193.244 78.328C192.177 77.816 190.449 77.2613 188.06 76.664C185.5 76.0667 183.366 75.448 181.66 74.808C179.953 74.1253 178.481 73.08 177.244 71.672C176.006 70.2213 175.388 68.28 175.388 65.848C175.388 63.8 175.942 61.944 177.052 60.28C178.204 58.5733 179.868 57.2293 182.044 56.248C184.262 55.2667 186.886 54.776 189.916 54.776C194.396 54.776 197.916 55.8853 200.476 58.104C203.078 60.3227 204.572 63.2667 204.956 66.936H194.844C194.673 65.6987 194.118 64.7173 193.18 63.992C192.284 63.2667 191.089 62.904 189.596 62.904C188.316 62.904 187.334 63.16 186.652 63.672C185.969 64.1413 185.628 64.8027 185.628 65.656C185.628 66.68 186.161 67.448 187.228 67.96C188.337 68.472 190.044 68.984 192.348 69.496C194.993 70.1787 197.148 70.8613 198.812 71.544C200.476 72.184 201.926 73.2507 203.164 74.744C204.444 76.1947 205.105 78.1573 205.148 80.632C205.148 82.7227 204.55 84.6 203.356 86.264C202.204 87.8853 200.518 89.1653 198.3 90.104C196.124 91.0427 193.585 91.512 190.684 91.512Z" fill="white"/>
</svg>
