<svg width="432" height="593" viewBox="0 0 432 593" fill="none" xmlns="http://www.w3.org/2000/svg">
<path d="M108 338.333H416.545C418.312 338.333 420.061 337.985 421.694 337.309C423.327 336.632 424.81 335.641 426.059 334.392C427.309 333.142 428.3 331.659 428.976 330.027C429.652 328.394 430 326.644 430 324.877V146.455C430.002 145.263 429.844 144.075 429.529 142.925C428.754 140.075 427.064 137.559 424.717 135.765C422.37 133.971 419.499 132.999 416.545 133H296.031C293.22 137.736 291.487 143.033 290.957 148.515C289.462 164.451 298.6 179.184 306.776 192.95C314.952 206.715 322.749 222.72 318.419 238.135C315.491 248.532 307.557 256.057 297.712 260.567C288.253 264.753 277.847 266.338 267.57 265.157C261.398 264.378 255.318 262.99 249.419 261.013C241.683 258.501 234.128 255.244 226.584 251.95C226.578 251.95 226.578 251.95 226.572 251.944C226.442 251.888 226.305 251.826 226.175 251.77C220.337 249.221 214.506 246.665 208.588 244.413C201.654 241.701 194.456 239.718 187.112 238.495C175.952 236.746 164.699 237.378 154.743 242.44C138.515 250.685 129.817 268.501 123.012 285.387C116.139 302.458 109.979 320.101 108 338.333Z" fill="#FF9551"/>
<path d="M3.24441e-08 225V315.806C-0.000157918 318.734 0.576407 321.633 1.6968 324.338C2.81719 327.043 4.45946 329.501 6.52981 331.571C8.60016 333.642 11.058 335.284 13.7631 336.404C16.4682 337.525 19.3675 338.101 22.2954 338.101H107.283C108.753 324.399 107.519 310.748 102.123 298.012C90.3636 270.238 61.9111 253.812 34.7846 240.624C23.385 235.084 11.7901 229.739 3.24441e-08 225Z" fill="#FF9551"/>
<path d="M0 324.228V145.129C0.00424552 141.383 1.49418 137.792 4.14294 135.143C6.7917 132.494 10.383 131.004 14.1289 131H417.398C421.144 131.004 424.735 132.494 427.384 135.143C430.033 137.792 431.522 141.383 431.527 145.129V324.228C431.523 327.974 430.033 331.565 427.384 334.214C424.735 336.863 421.144 338.353 417.398 338.357H14.1289C10.3829 338.353 6.79161 336.863 4.14285 334.214C1.49408 331.565 0.00418123 327.974 0 324.228ZM14.1289 132.245C10.7131 132.249 7.43839 133.608 5.02309 136.023C2.60779 138.438 1.2492 141.713 1.24539 145.129V324.228C1.24914 327.644 2.60769 330.918 5.02299 333.334C7.4383 335.749 10.7131 337.108 14.1289 337.112H417.398C420.814 337.108 424.088 335.749 426.504 333.334C428.919 330.918 430.278 327.644 430.281 324.228V145.129C430.277 141.713 428.919 138.438 426.504 136.023C424.088 133.608 420.814 132.249 417.398 132.245H14.1289Z" fill="#3F3D56"/>
<path d="M155 335.549H173.196C176.308 325.07 180.799 313.963 184.901 303.841C192.771 284.434 202.825 263.957 221.589 254.481C229.601 250.435 238.337 248.855 247.259 248.941C259.583 249.057 272.254 252.366 283.854 256.75C288.6 258.54 293.302 260.507 297.985 262.518C315.63 270.1 333.083 278.359 352.059 280.591C376.07 283.413 404.301 272.671 410.859 249.531C415.864 231.815 406.85 213.422 397.396 197.6C387.942 181.778 377.375 164.849 379.101 146.531C379.108 146.469 379.114 146.401 379.126 146.34C379.776 139.76 383.705 135.032 389.192 132H365.298C364.983 149.089 374.87 164.173 383.766 179.066C393.22 194.882 402.234 213.281 397.229 230.997C390.671 254.131 336.367 227.013 312.355 224.185C305.575 223.391 316.346 226.214 309.881 224.185C299.74 221.005 298.616 250.164 288.748 245.884C282.605 243.216 276.455 240.565 270.225 238.21C267.645 237.232 265.009 236.316 262.342 235.468C262.336 235.468 262.336 235.468 262.33 235.461C244.425 229.792 224.844 227.584 208.3 235.781C208.189 235.837 208.071 235.892 207.96 235.947C189.195 245.417 179.141 265.894 171.272 285.301C164.769 301.345 158.205 318.626 155 335.549Z" fill="#3F3D56"/>
<path d="M247.117 245.373H30.6867C28.9133 245.373 27.2125 244.669 25.9585 243.415C24.7045 242.161 24 240.46 24 238.687C24 236.913 24.7045 235.212 25.9585 233.958C27.2125 232.704 28.9133 232 30.6867 232H247.117C248.891 232 250.591 232.704 251.845 233.958C253.099 235.212 253.804 236.913 253.804 238.687C253.804 240.46 253.099 242.161 251.845 243.415C250.591 244.669 248.891 245.373 247.117 245.373Z" fill="#3F3D56"/>
<path d="M91.0408 207H30.075C28.4638 207 26.9186 207.64 25.7793 208.779C24.6401 209.919 24 211.464 24 213.075C24 214.686 24.6401 216.231 25.7793 217.371C26.9186 218.51 28.4638 219.15 30.075 219.15H91.0408C92.652 219.15 94.1972 218.51 95.3365 217.371C96.4757 216.231 97.1158 214.686 97.1158 213.075C97.1158 211.464 96.4757 209.919 95.3365 208.779C94.1972 207.64 92.652 207 91.0408 207H91.0408Z" fill="#3F3D56"/>
<path d="M156.192 565.274L143.73 565.169L138.214 515.982L156.605 516.138L156.192 565.274Z" fill="#FFB6B6"/>
<path d="M116.276 585.09C116.264 586.567 116.84 587.989 117.875 589.042C118.911 590.096 120.322 590.696 121.799 590.71L146.576 590.917L150.913 582.125L152.506 590.962L161.855 591.047L159.494 559.529L156.242 559.313L142.975 558.398L138.695 558.111L138.62 567.029L118.717 580.529C117.971 581.035 117.36 581.714 116.934 582.509C116.509 583.303 116.283 584.189 116.276 585.09Z" fill="#2F2E41"/>
<path d="M282.625 565.274L270.163 565.169L264.647 515.982L283.038 516.138L282.625 565.274Z" fill="#FFB6B6"/>
<path d="M242.709 585.09C242.698 586.567 243.273 587.989 244.308 589.042C245.344 590.096 246.755 590.696 248.232 590.71L273.009 590.917L277.346 582.125L278.939 590.962L288.288 591.047L285.927 559.529L282.675 559.313L269.408 558.398L265.128 558.111L265.053 567.029L245.15 580.529C244.405 581.035 243.793 581.714 243.368 582.509C242.942 583.303 242.716 584.189 242.709 585.09Z" fill="#2F2E41"/>
<path d="M140.819 171.374L196.904 128.211C199.275 126.375 200.829 123.681 201.231 120.709C201.632 117.738 200.85 114.728 199.052 112.328C198.122 111.087 196.948 110.048 195.604 109.275C194.259 108.502 192.771 108.011 191.23 107.832C189.689 107.653 188.128 107.789 186.642 108.233C185.156 108.677 183.775 109.419 182.585 110.413L125.701 157.035L89.9413 183.908C88.1717 182.879 86.1284 182.42 84.0888 182.593C82.0492 182.765 80.1123 183.562 78.5412 184.874C76.9701 186.186 75.8411 187.95 75.3074 189.926C74.7737 191.902 74.8614 193.995 75.5583 195.92C76.2553 197.844 77.5279 199.508 79.2031 200.684C80.8784 201.86 82.8751 202.492 84.922 202.494C86.9689 202.496 88.9668 201.867 90.6442 200.694C92.3216 199.521 93.5971 197.86 94.2976 195.937L140.819 171.374Z" fill="#FFB6B6"/>
<path d="M186.531 181.296L184.059 236.51L268.024 246.67C261.417 224.484 250.583 193.669 255.548 178.229L186.531 181.296Z" fill="#A0616A"/>
<path d="M234.26 80.0747H208.395L197.288 99.0818L191.995 98.7896C181.68 102.762 177.568 106.874 171.876 117.829L151.871 134.628L167.289 153.13C177.939 151.385 181.779 143.118 178.397 127.936C178.397 127.936 166.735 148.261 183.534 158.26C183.534 158.26 180.538 177.1 183.534 176.898C186.531 176.695 193.432 172.861 186.531 176.695C179.629 180.529 180.811 180.695 181.037 181.937C184.764 202.47 187.847 217.888 187.847 217.888L260.829 225.084C260.829 225.084 256.624 180.947 256.852 178.438C257.081 175.928 255.547 182.063 257.081 175.928C258.615 169.793 260.915 172.094 258.615 169.793C256.314 167.493 274.429 165.512 267.359 154.456L291.001 148.289L277.786 116.881C277.786 106.276 260.754 97.6789 250.149 97.6789H248.791L234.26 80.0747Z" fill="#E6E6E6"/>
<path d="M261.784 216.744C233.232 226.565 207.527 224.409 185.792 205.553C185.792 205.553 179.675 228.167 173.482 225.084C167.29 222 170.35 230.629 168.649 233.792C166.843 237.151 168.94 242.817 162.975 244.744C157.01 246.67 159.251 252.331 157.32 256.497C143.807 285.654 128.375 326.924 117.95 379.27C107.237 433.06 133.369 523.178 133.369 523.178L158.038 521.122L164.206 403.94L192.414 354.409C192.414 354.409 206.272 346.34 197.574 342.247C188.876 338.154 194.703 333.082 201.041 334.076C207.378 335.07 214.574 302.177 214.574 302.177C205.538 324.885 261.857 525.234 261.857 525.234L285.499 523.178L272.137 243.586L261.784 216.744Z" fill="#2F2E41"/>
<path d="M249.61 32.3569C252.414 39.3398 260.324 53.0719 261.395 60.5631L260.913 60.0889C259.993 61.6603 258.948 63.1549 257.787 64.5581C255.707 62.3735 253.195 60.6461 250.411 59.4859C251.931 62.6056 252.812 65.9982 253 69.4636C247.851 73.9477 234.7 71.2423 228.13 73.632C217.556 77.4683 206.33 78.834 195.246 79.9682C191.311 80.3732 186.907 80.6191 184.15 78.2943C181.393 75.9695 183.035 71.6643 181.552 68.4081C170.987 45.2138 180.737 36.8454 189.021 26.3282C190.844 24.0138 190.837 20.5599 193.055 18.3517C196.133 15.2908 200.851 14.3493 205.201 13.5951C204.071 13.6546 202.945 13.4223 201.931 12.9204C200.917 12.4185 200.049 11.664 199.411 10.7296C198.851 9.78807 198.562 8.71026 198.576 7.61501C198.59 6.51977 198.906 5.44965 199.489 4.52267C201.045 1.94348 204.278 0.443643 207.397 0.0689594C210.469 -0.139694 213.556 0.125626 216.548 0.855608C218.486 1.11052 220.363 1.7104 222.09 2.62686C222.904 3.06152 223.567 3.73453 223.989 4.55589C224.411 5.37725 224.572 6.30783 224.451 7.22323C224.191 8.06855 223.743 8.8443 223.142 9.49261C222.54 10.1409 221.8 10.6451 220.977 10.9675C219.721 11.4983 218.4 11.8599 217.049 12.0426C223.255 11.2373 229.558 12.3406 235.121 15.2056C242.092 18.9244 246.797 25.3778 249.61 32.3569Z" fill="#2F2E41"/>
<path d="M211.861 71.5057C225.624 71.5057 236.781 60.3483 236.781 46.5849C236.781 32.8216 225.624 21.6642 211.861 21.6642C198.097 21.6642 186.94 32.8216 186.94 46.5849C186.94 60.3483 198.097 71.5057 211.861 71.5057Z" fill="#FFB6B6"/>
<path d="M235.84 33.2228C234.395 37.5898 230.266 38.997 226.45 39.8746C225.246 40.1551 224.036 40.4165 222.814 40.649C222.363 40.0854 221.883 39.533 221.383 39.0108C219.302 36.8263 216.79 35.0989 214.006 33.9387C215.21 36.403 216.01 39.0448 216.376 41.763C214.069 42.0978 211.749 42.3713 209.416 42.5837C207.442 43.0038 205.382 42.6496 203.662 41.5943C201.943 40.5389 200.694 38.8632 200.174 36.9133C198.05 40.3861 195.539 43.6567 192.106 45.0362C190.142 45.7418 188.004 45.7998 186.005 45.2017C184.006 44.6037 182.251 43.381 180.997 41.713C178.941 39.204 177.795 35.8334 176.972 32.5804C175.997 28.7132 175.456 24.2584 177.369 21.8048C178.902 19.8191 181.546 19.7834 183.986 19.9596C189.371 20.3726 194.699 21.3386 199.886 22.8421L200.325 23.8294C199.433 18.4741 201.367 13.3216 204.945 11.4891C207.358 10.2639 210.261 10.4694 213.082 10.7179C216.705 10.8796 220.285 11.572 223.708 12.7729C227.634 14.2832 230.998 16.9696 233.339 20.4648C235.843 24.2665 237.087 29.4515 235.84 33.2228Z" fill="#2F2E41"/>
<path d="M200.314 9.93061C200.56 9.85801 199.923 9.95125 200.144 9.95718C200.034 9.95081 199.925 9.93554 199.817 9.91152C199.799 9.90787 199.551 9.82869 199.716 9.88685C199.346 9.77617 199.016 9.56071 198.765 9.26647C198.18 8.54256 197.721 7.72521 197.407 6.84872C197.011 5.69046 196.374 4.62904 195.539 3.73414C195.302 3.49603 195.012 3.31718 194.693 3.21211C194.374 3.10703 194.034 3.07869 193.702 3.12939C193.37 3.18009 193.054 3.3084 192.781 3.5039C192.508 3.69941 192.285 3.95658 192.129 4.25457C191.644 5.32818 192.087 6.65101 192.434 7.70547C192.791 8.80107 193.322 9.83187 194.008 10.7581C195.157 12.2728 196.721 13.4207 198.511 14.0618C200.582 14.8141 202.841 14.8787 204.952 14.2458C205.231 14.1301 205.47 13.9358 205.641 13.6865C205.811 13.4373 205.906 13.1438 205.912 12.8419C205.919 12.54 205.837 12.2428 205.678 11.9863C205.519 11.7298 205.288 11.5252 205.014 11.3975L201.494 9.95631C201.308 9.87476 201.109 9.83051 200.906 9.8261C200.704 9.82168 200.503 9.85718 200.314 9.93057C200.125 10.004 199.953 10.1138 199.806 10.2538C199.66 10.3938 199.543 10.5613 199.461 10.7466C199.38 10.932 199.336 11.1316 199.331 11.334C199.327 11.5364 199.362 11.7378 199.436 11.9265C199.509 12.1152 199.619 12.2876 199.759 12.4339C199.899 12.5801 200.066 12.6974 200.252 12.779L203.772 14.2201L203.835 11.3717C203.395 11.4986 202.943 11.5758 202.487 11.6022C202 11.651 201.508 11.6302 201.027 11.5406C200.566 11.4802 200.113 11.3698 199.676 11.2112C199.396 11.109 199.122 10.9927 198.854 10.8627C198.757 10.8154 198.66 10.7663 198.564 10.7154C198.571 10.7191 198.162 10.4805 198.341 10.5926C197.886 10.3016 197.459 9.96879 197.065 9.59848C196.926 9.46717 196.798 9.32471 196.682 9.17255C196.482 8.92612 196.296 8.6682 196.126 8.40009C195.779 7.83234 195.504 7.22358 195.308 6.58789C195.218 6.32071 195.143 6.04907 195.081 5.77404C195.064 5.62308 195.037 5.47344 195 5.3262C194.869 4.97535 195.024 5.53107 194.874 5.68309L194.225 6.16133C194.103 6.19764 193.975 6.20606 193.849 6.18595C193.724 6.16584 193.604 6.11773 193.5 6.04518C193.423 5.93698 193.44 5.95493 193.55 6.09903C193.679 6.26861 193.796 6.44618 193.902 6.63066C194.135 7.06497 194.345 7.51081 194.533 7.96646C194.92 8.93552 195.41 9.86045 195.994 10.7255C196.566 11.6005 197.399 12.2725 198.376 12.6459C199.352 13.0192 200.422 13.0748 201.432 12.8047C201.811 12.6538 202.115 12.36 202.279 11.9866C202.444 11.6132 202.454 11.1902 202.31 10.8089C202.155 10.433 201.861 10.1317 201.489 9.96793C201.117 9.80422 200.696 9.79085 200.314 9.93061Z" fill="#2F2E41"/>
<path d="M161.446 280.688C202.141 280.688 235.132 247.698 235.132 207.002C235.132 166.307 202.141 133.316 161.446 133.316C120.75 133.316 87.76 166.307 87.76 207.002C87.76 247.698 120.75 280.688 161.446 280.688Z" fill="white"/>
<path d="M161.446 281.716C146.669 281.716 132.224 277.334 119.937 269.125C107.65 260.915 98.0742 249.246 92.4193 235.594C86.7643 221.942 85.2847 206.92 88.1675 192.427C91.0503 177.934 98.1661 164.621 108.615 154.172C119.064 143.723 132.376 136.607 146.869 133.724C161.362 130.841 176.385 132.321 190.037 137.976C203.689 143.631 215.358 153.207 223.568 165.493C231.777 177.78 236.159 192.225 236.159 207.002C236.137 226.81 228.258 245.801 214.252 259.808C200.245 273.815 181.254 281.694 161.446 281.716ZM161.446 134.345C147.075 134.345 133.028 138.606 121.079 146.59C109.131 154.573 99.8178 165.921 94.3185 179.198C88.8192 192.474 87.3804 207.083 90.1839 221.177C92.9875 235.272 99.9075 248.218 110.069 258.38C120.23 268.541 133.177 275.461 147.271 278.264C161.365 281.068 175.975 279.629 189.251 274.129C202.528 268.63 213.875 259.317 221.859 247.369C229.843 235.42 234.104 221.372 234.104 207.002C234.082 187.739 226.42 169.27 212.799 155.649C199.177 142.028 180.709 134.366 161.446 134.345Z" fill="#3F3D56"/>
<path d="M151.393 245.352C150.121 245.352 148.866 245.056 147.728 244.487C146.59 243.917 145.6 243.091 144.837 242.073L124.734 215.269C124.089 214.408 123.619 213.428 123.352 212.385C123.084 211.343 123.025 210.258 123.178 209.192C123.33 208.126 123.691 207.101 124.239 206.175C124.787 205.249 125.513 204.44 126.374 203.794C127.235 203.148 128.215 202.679 129.258 202.411C130.3 202.144 131.385 202.085 132.451 202.237C133.516 202.39 134.542 202.75 135.468 203.299C136.394 203.847 137.203 204.573 137.849 205.434L151.001 222.968L184.779 172.301C185.376 171.405 186.144 170.636 187.038 170.037C187.933 169.438 188.936 169.021 189.992 168.81C191.047 168.599 192.134 168.598 193.19 168.807C194.246 169.016 195.251 169.43 196.146 170.027C197.042 170.625 197.811 171.392 198.41 172.287C199.009 173.181 199.426 174.184 199.637 175.24C199.848 176.295 199.849 177.382 199.64 178.438C199.431 179.494 199.017 180.499 198.419 181.394L178.317 211.548L158.214 241.702C157.487 242.793 156.509 243.693 155.362 244.328C154.215 244.962 152.932 245.313 151.622 245.35C151.546 245.351 151.47 245.352 151.393 245.352Z" fill="#FF4A4A"/>
<path d="M80.2808 591.777C80.2803 591.938 80.3116 592.097 80.3729 592.245C80.4342 592.394 80.5243 592.529 80.638 592.643C80.7517 592.756 80.8867 592.847 81.0354 592.908C81.184 592.969 81.3433 593 81.504 593H341.864C342.188 593 342.499 592.871 342.728 592.642C342.958 592.412 343.087 592.101 343.087 591.777C343.087 591.452 342.958 591.141 342.728 590.912C342.499 590.682 342.188 590.554 341.864 590.554H81.504C81.3433 590.553 81.184 590.584 81.0354 590.646C80.8867 590.707 80.7517 590.797 80.638 590.911C80.5243 591.024 80.4342 591.159 80.3729 591.308C80.3116 591.457 80.2803 591.616 80.2808 591.777Z" fill="#CCCCCC"/>
<path d="M310.803 209.523L286.716 142.976C285.687 140.16 283.592 137.861 280.884 136.575C278.175 135.29 275.069 135.121 272.237 136.105C270.772 136.615 269.425 137.417 268.28 138.463C267.135 139.51 266.215 140.778 265.577 142.192C264.938 143.605 264.594 145.134 264.565 146.685C264.537 148.236 264.824 149.776 265.41 151.212L292.55 219.571L307.29 261.803C305.773 263.177 304.715 264.984 304.26 266.98C303.805 268.976 303.976 271.063 304.749 272.958C305.521 274.854 306.859 276.465 308.58 277.574C310.3 278.683 312.321 279.235 314.366 279.155C316.411 279.076 318.383 278.369 320.012 277.13C321.642 275.891 322.85 274.181 323.474 272.231C324.097 270.281 324.106 268.187 323.497 266.232C322.889 264.278 321.694 262.558 320.074 261.307L310.803 209.523Z" fill="#FFB6B6"/>
<path d="M274.555 113.34L294.085 148.289C294.085 148.289 249.076 163.699 248.967 161.134C248.857 158.568 251.203 122.963 251.203 122.963L274.555 113.34Z" fill="#E6E6E6"/>
</svg>
