<svg width="49" height="49" viewBox="0 0 49 49" fill="none" xmlns="http://www.w3.org/2000/svg">
<path fill-rule="evenodd" clip-rule="evenodd" d="M24.5 49C38.031 49 49 38.031 49 24.5C49 10.969 38.031 0 24.5 0C10.969 0 0 10.969 0 24.5C0 38.031 10.969 49 24.5 49Z" fill="#F2F5F7"/>
<mask id="mask0_12_198" style="mask-type:alpha" maskUnits="userSpaceOnUse" x="0" y="0" width="49" height="49">
<path fill-rule="evenodd" clip-rule="evenodd" d="M24.5 49C38.031 49 49 38.031 49 24.5C49 10.969 38.031 0 24.5 0C10.969 0 0 10.969 0 24.5C0 38.031 10.969 49 24.5 49Z" fill="white"/>
</mask>
<g mask="url(#mask0_12_198)">
<path fill-rule="evenodd" clip-rule="evenodd" d="M16.2274 19.1556C14.1949 18.4875 12.7274 16.5742 12.7274 14.3182L14.5258 14.581C13.9925 13.776 13.6819 12.8106 13.6819 11.7727L16.2274 12.1446V10.8182L30.3841 12.955C31.9403 13.1899 33.091 14.5273 33.091 16.1012V21.7166C34.1889 21.9991 35.0001 22.9957 35.0001 24.1818C35.0001 25.3679 34.1889 26.3645 33.091 26.6471V27.6818H33.0777C32.9166 30.5694 31.3025 33.069 28.9546 34.4617V35.9545H31.8183C33.4919 35.9545 34.8638 37.2467 34.9905 38.8879C38.0569 39.3443 40.4092 41.9884 40.4092 45.1818V53.7727H8.90918V45.1818C8.90918 41.8777 11.4274 39.1617 14.6493 38.8483C14.7949 37.226 16.1581 35.9545 17.8183 35.9545H20.3637V34.4617C18.0158 33.069 16.4018 30.5694 16.2406 27.6818H16.2274V26.7273C14.8215 26.7273 13.6819 25.5876 13.6819 24.1818C13.6819 22.776 14.8215 21.6364 16.2274 21.6364V19.1556Z" fill="#C2D1D9"/>
</g>
</svg>
